<svg width="99" height="49" viewBox="0 0 99 49" fill="none" xmlns="http://www.w3.org/2000/svg">
<rect y="0.611633" width="99" height="48" rx="16" fill="#FFF7E8"/>
<path d="M27 24.6116H21M24 21.6116V27.6116M24 15.6116C31.2 15.6116 33 17.4116 33 24.6116C33 31.8116 31.2 33.6116 24 33.6116C16.8 33.6116 15 31.8116 15 24.6116C15 17.4116 16.8 15.6116 24 15.6116Z" stroke="#FFA500" stroke-width="1.25" stroke-linecap="round" stroke-linejoin="round"/>
<path d="M53.4261 23.1116H52.1932C52.1203 22.757 51.9927 22.4454 51.8104 22.177C51.6314 21.9085 51.4126 21.6831 51.1541 21.5008C50.8989 21.3152 50.6155 21.176 50.304 21.0832C49.9924 20.9904 49.6676 20.944 49.3295 20.944C48.7131 20.944 48.1546 21.0998 47.6541 21.4113C47.157 21.7229 46.7609 22.1819 46.4659 22.7885C46.1742 23.395 46.0284 24.1391 46.0284 25.0207C46.0284 25.9024 46.1742 26.6464 46.4659 27.253C46.7609 27.8595 47.157 28.3185 47.6541 28.6301C48.1546 28.9417 48.7131 29.0974 49.3295 29.0974C49.6676 29.0974 49.9924 29.051 50.304 28.9582C50.6155 28.8654 50.8989 28.7279 51.1541 28.5456C51.4126 28.36 51.6314 28.1329 51.8104 27.8645C51.9927 27.5927 52.1203 27.2811 52.1932 26.9298H53.4261C53.3333 27.4502 53.1643 27.9158 52.919 28.3268C52.6738 28.7378 52.3688 29.0875 52.0043 29.3758C51.6397 29.6609 51.2304 29.878 50.7763 30.0271C50.3255 30.1763 49.8433 30.2508 49.3295 30.2508C48.4612 30.2508 47.6889 30.0387 47.0128 29.6145C46.3366 29.1902 45.8047 28.587 45.4169 27.8048C45.0291 27.0226 44.8352 26.0946 44.8352 25.0207C44.8352 23.9469 45.0291 23.0188 45.4169 22.2366C45.8047 21.4544 46.3366 20.8512 47.0128 20.427C47.6889 20.0027 48.4612 19.7906 49.3295 19.7906C49.8433 19.7906 50.3255 19.8652 50.7763 20.0143C51.2304 20.1635 51.6397 20.3822 52.0043 20.6706C52.3688 20.9556 52.6738 21.3036 52.919 21.7146C53.1643 22.1223 53.3333 22.588 53.4261 23.1116ZM63.3117 23.1116H62.0787C62.0058 22.757 61.8782 22.4454 61.6959 22.177C61.5169 21.9085 61.2982 21.6831 61.0397 21.5008C60.7845 21.3152 60.5011 21.176 60.1895 21.0832C59.878 20.9904 59.5532 20.944 59.2151 20.944C58.5986 20.944 58.0401 21.0998 57.5397 21.4113C57.0425 21.7229 56.6464 22.1819 56.3515 22.7885C56.0598 23.395 55.914 24.1391 55.914 25.0207C55.914 25.9024 56.0598 26.6464 56.3515 27.253C56.6464 27.8595 57.0425 28.3185 57.5397 28.6301C58.0401 28.9417 58.5986 29.0974 59.2151 29.0974C59.5532 29.0974 59.878 29.051 60.1895 28.9582C60.5011 28.8654 60.7845 28.7279 61.0397 28.5456C61.2982 28.36 61.5169 28.1329 61.6959 27.8645C61.8782 27.5927 62.0058 27.2811 62.0787 26.9298H63.3117C63.2189 27.4502 63.0498 27.9158 62.8046 28.3268C62.5593 28.7378 62.2544 29.0875 61.8898 29.3758C61.5252 29.6609 61.1159 29.878 60.6618 30.0271C60.2111 30.1763 59.7288 30.2508 59.2151 30.2508C58.3467 30.2508 57.5745 30.0387 56.8983 29.6145C56.2222 29.1902 55.6902 28.587 55.3025 27.8048C54.9147 27.0226 54.7208 26.0946 54.7208 25.0207C54.7208 23.9469 54.9147 23.0188 55.3025 22.2366C55.6902 21.4544 56.2222 20.8512 56.8983 20.427C57.5745 20.0027 58.3467 19.7906 59.2151 19.7906C59.7288 19.7906 60.2111 19.8652 60.6618 20.0143C61.1159 20.1635 61.5252 20.3822 61.8898 20.6706C62.2544 20.9556 62.5593 21.3036 62.8046 21.7146C63.0498 22.1223 63.2189 22.588 63.3117 23.1116ZM73.0779 19.9298V30.1116H71.8847L66.3364 22.1173H66.237V30.1116H65.004V19.9298H66.1972L71.7654 27.944H71.8648V19.9298H73.0779ZM74.6882 21.0236V19.9298H82.3246V21.0236H79.1229V30.1116H77.89V21.0236H74.6882Z" fill="#734A00"/>
</svg>
