<svg width="116" height="49" viewBox="0 0 116 49" fill="none" xmlns="http://www.w3.org/2000/svg">
<rect y="0.611633" width="116" height="48" rx="16" fill="#FFF7E8"/>
<path d="M27 24.6116H21M24 21.6116V27.6116M24 15.6116C31.2 15.6116 33 17.4116 33 24.6116C33 31.8116 31.2 33.6116 24 33.6116C16.8 33.6116 15 31.8116 15 24.6116C15 17.4116 16.8 15.6116 24 15.6116Z" stroke="#FFA500" stroke-width="1.25" stroke-linecap="round" stroke-linejoin="round"/>
<path d="M45.233 30.1116V19.9298H51.3381V21.0236H46.4659V24.4639H50.8807V25.5577H46.4659V30.1116H45.233ZM52.9086 30.1116V22.4753H54.0422V23.6287H54.1217C54.2609 23.2508 54.5128 22.9443 54.8774 22.7089C55.242 22.4736 55.6529 22.356 56.1103 22.356C56.1965 22.356 56.3042 22.3576 56.4335 22.3609C56.5627 22.3642 56.6605 22.3692 56.7268 22.3758V23.569C56.687 23.5591 56.5959 23.5442 56.4534 23.5243C56.3142 23.5011 56.1667 23.4895 56.0109 23.4895C55.6397 23.4895 55.3083 23.5674 55.0166 23.7231C54.7282 23.8756 54.4995 24.0877 54.3305 24.3595C54.1648 24.628 54.0819 24.9345 54.0819 25.2792V30.1116H52.9086ZM62.6301 26.9895V22.4753H63.8034V30.1116H62.6301V28.819H62.5506C62.3716 29.2068 62.0932 29.5366 61.7153 29.8084C61.3375 30.0768 60.8602 30.2111 60.2835 30.2111C59.8062 30.2111 59.382 30.1067 59.0108 29.8979C58.6396 29.6857 58.3479 29.3676 58.1358 28.9433C57.9237 28.5158 57.8176 27.9772 57.8176 27.3275V22.4753H58.9909V27.248C58.9909 27.8048 59.1467 28.2489 59.4582 28.5804C59.7731 28.9118 60.1741 29.0775 60.6614 29.0775C60.953 29.0775 61.2497 29.003 61.5513 28.8538C61.8562 28.7047 62.1114 28.476 62.3169 28.1677C62.5257 27.8595 62.6301 27.4667 62.6301 26.9895ZM65.6524 30.1116V22.4753H66.8257V30.1116H65.6524ZM66.249 21.2025C66.0203 21.2025 65.8231 21.1247 65.6574 20.9689C65.4949 20.8131 65.4137 20.6258 65.4137 20.4071C65.4137 20.1883 65.4949 20.0011 65.6574 19.8453C65.8231 19.6895 66.0203 19.6116 66.249 19.6116C66.4777 19.6116 66.6732 19.6895 66.8356 19.8453C67.0013 20.0011 67.0842 20.1883 67.0842 20.4071C67.0842 20.6258 67.0013 20.8131 66.8356 20.9689C66.6732 21.1247 66.4777 21.2025 66.249 21.2025ZM71.9957 22.4753V23.4696H68.0383V22.4753H71.9957ZM69.1917 20.6457H70.365V27.9241C70.365 28.2556 70.413 28.5042 70.5092 28.6699C70.6086 28.8323 70.7345 28.9417 70.887 28.998C71.0428 29.051 71.2068 29.0775 71.3792 29.0775C71.5085 29.0775 71.6145 29.0709 71.6974 29.0577C71.7802 29.0411 71.8465 29.0278 71.8962 29.0179L72.1349 30.0719C72.0553 30.1017 71.9443 30.1315 71.8018 30.1613C71.6593 30.1945 71.4786 30.2111 71.2599 30.2111C70.9284 30.2111 70.6036 30.1398 70.2854 29.9973C69.9706 29.8548 69.7087 29.6377 69.4999 29.346C69.2944 29.0543 69.1917 28.6864 69.1917 28.2423V20.6457ZM73.4407 30.1116V29.2167L76.8015 25.5378C77.1959 25.1069 77.5207 24.7324 77.7759 24.4142C78.0311 24.0927 78.2201 23.7911 78.3427 23.5094C78.4686 23.2243 78.5316 22.926 78.5316 22.6145C78.5316 22.2565 78.4454 21.9466 78.2731 21.6848C78.104 21.4229 77.872 21.2208 77.5771 21.0783C77.2821 20.9357 76.9506 20.8645 76.5827 20.8645C76.1916 20.8645 75.8503 20.9457 75.5586 21.1081C75.2702 21.2672 75.0465 21.4909 74.8874 21.7792C74.7317 22.0676 74.6538 22.4057 74.6538 22.7935H73.4805C73.4805 22.1969 73.618 21.6732 73.8931 21.2224C74.1682 20.7717 74.5427 20.4203 75.0167 20.1685C75.494 19.9166 76.0292 19.7906 76.6225 19.7906C77.2191 19.7906 77.7478 19.9166 78.2085 20.1685C78.6692 20.4203 79.0304 20.7601 79.2923 21.1876C79.5541 21.6152 79.685 22.0908 79.685 22.6145C79.685 22.989 79.6171 23.3552 79.4812 23.7132C79.3486 24.0678 79.1166 24.4639 78.7852 24.9014C78.457 25.3356 78.0013 25.8659 77.418 26.4923L75.131 28.9383V29.0179H79.864V30.1116H73.4407ZM88.7565 23.1116C88.6471 22.7769 88.5029 22.4769 88.3239 22.2118C88.1483 21.9433 87.9378 21.7146 87.6925 21.5257C87.4506 21.3368 87.1755 21.1926 86.8673 21.0932C86.559 20.9937 86.221 20.944 85.8531 20.944C85.2498 20.944 84.7013 21.0998 84.2075 21.4113C83.7136 21.7229 83.3209 22.1819 83.0292 22.7885C82.7375 23.395 82.5917 24.1391 82.5917 25.0207C82.5917 25.9024 82.7392 26.6464 83.0342 27.253C83.3291 27.8595 83.7285 28.3185 84.2323 28.6301C84.7361 28.9417 85.3029 29.0974 85.9326 29.0974C86.5159 29.0974 87.0297 28.9731 87.4738 28.7246C87.9212 28.4727 88.2692 28.118 88.5178 27.6606C88.7697 27.1999 88.8957 26.658 88.8957 26.0349L89.2735 26.1145H86.211V25.0207H90.0889V26.1145C90.0889 26.953 89.9099 27.6822 89.5519 28.302C89.1973 28.9218 88.7067 29.4024 88.0803 29.7437C87.4572 30.0818 86.7413 30.2508 85.9326 30.2508C85.0311 30.2508 84.2389 30.0387 83.5562 29.6145C82.8767 29.1902 82.3464 28.587 81.9653 27.8048C81.5874 27.0226 81.3985 26.0946 81.3985 25.0207C81.3985 24.2153 81.5062 23.4911 81.7217 22.8481C81.9404 22.2018 82.2487 21.6516 82.6464 21.1976C83.0441 20.7435 83.5147 20.3955 84.0583 20.1535C84.6019 19.9116 85.2001 19.7906 85.8531 19.7906C86.39 19.7906 86.8905 19.8718 87.3545 20.0342C87.8218 20.1933 88.2378 20.4203 88.6023 20.7153C88.9702 21.007 89.2768 21.3567 89.5221 21.7643C89.7674 22.1687 89.9364 22.6178 90.0292 23.1116H88.7565ZM94.8437 30.2707C94.1543 30.2707 93.5494 30.1067 93.0291 29.7785C92.512 29.4504 92.1077 28.9914 91.816 28.4014C91.5277 27.8114 91.3835 27.122 91.3835 26.3332C91.3835 25.5378 91.5277 24.8434 91.816 24.2501C92.1077 23.6569 92.512 23.1962 93.0291 22.868C93.5494 22.5399 94.1543 22.3758 94.8437 22.3758C95.5331 22.3758 96.1363 22.5399 96.6534 22.868C97.1737 23.1962 97.5781 23.6569 97.8664 24.2501C98.1581 24.8434 98.3039 25.5378 98.3039 26.3332C98.3039 27.122 98.1581 27.8114 97.8664 28.4014C97.5781 28.9914 97.1737 29.4504 96.6534 29.7785C96.1363 30.1067 95.5331 30.2707 94.8437 30.2707ZM94.8437 29.2167C95.3674 29.2167 95.7983 29.0825 96.1363 28.814C96.4744 28.5456 96.7246 28.1926 96.887 27.7551C97.0494 27.3176 97.1306 26.8436 97.1306 26.3332C97.1306 25.8228 97.0494 25.3472 96.887 24.9064C96.7246 24.4656 96.4744 24.1093 96.1363 23.8375C95.7983 23.5657 95.3674 23.4298 94.8437 23.4298C94.32 23.4298 93.8892 23.5657 93.5511 23.8375C93.213 24.1093 92.9628 24.4656 92.8004 24.9064C92.638 25.3472 92.5568 25.8228 92.5568 26.3332C92.5568 26.8436 92.638 27.3176 92.8004 27.7551C92.9628 28.1926 93.213 28.5456 93.5511 28.814C93.8892 29.0825 94.32 29.2167 94.8437 29.2167Z" fill="#734A00"/>
</svg>
