<svg width="540" height="257" viewBox="0 0 540 257" fill="none" xmlns="http://www.w3.org/2000/svg">
<rect y="0.611633" width="540" height="256" rx="16" fill="white"/>
<path d="M35.179 33.7111C35.0606 33.3275 34.8973 32.9843 34.6889 32.6812C34.4853 32.3735 34.2391 32.1107 33.9503 31.8929C33.6662 31.6751 33.3395 31.5117 32.9702 31.4028C32.6009 31.2892 32.1984 31.2324 31.7628 31.2324C30.9815 31.2324 30.2855 31.4289 29.6747 31.8219C29.0639 32.2149 28.5833 32.7925 28.233 33.5548C27.8873 34.3124 27.7145 35.2357 27.7145 36.3247C27.7145 37.4232 27.8873 38.3536 28.233 39.1159C28.5786 39.8782 29.0592 40.4582 29.6747 40.856C30.2902 41.2489 31.0052 41.4454 31.8196 41.4454C32.5582 41.4454 33.1974 41.3034 33.7372 41.0193C34.2817 40.7352 34.7008 40.3328 34.9943 39.8119C35.2879 39.2863 35.4347 38.6708 35.4347 37.9653L36.0312 38.0577H32.0824V35.998H37.9844V37.7452C37.9844 38.9904 37.7192 40.0676 37.1889 40.9767C36.6586 41.8858 35.9295 42.5865 35.0014 43.079C34.0734 43.5667 33.008 43.8105 31.8054 43.8105C30.4654 43.8105 29.2888 43.5098 28.2756 42.9085C27.267 42.3024 26.4787 41.4431 25.9105 40.3304C25.3471 39.213 25.0653 37.8872 25.0653 36.3531C25.0653 35.1789 25.2311 34.1301 25.5625 33.2068C25.8987 32.2835 26.3674 31.4999 26.9688 30.856C27.5701 30.2073 28.2756 29.7149 29.0852 29.3787C29.8949 29.0378 30.7756 28.8673 31.7273 28.8673C32.5322 28.8673 33.2827 28.9857 33.9787 29.2224C34.6747 29.4544 35.2926 29.7859 35.8324 30.2167C36.3769 30.6476 36.8243 31.159 37.1747 31.7508C37.5251 32.3427 37.7547 32.9961 37.8636 33.7111H35.179ZM40.2187 43.6116V32.7025H42.7116V34.5207H42.8252C43.0241 33.891 43.365 33.4057 43.8479 33.0648C44.3356 32.7191 44.892 32.5463 45.517 32.5463C45.659 32.5463 45.8176 32.5534 45.9928 32.5676C46.1728 32.5771 46.3219 32.5936 46.4403 32.6173V34.9824C46.3314 34.9445 46.1585 34.9113 45.9218 34.8829C45.6898 34.8498 45.4649 34.8332 45.2471 34.8332C44.7783 34.8332 44.3569 34.935 43.9829 35.1386C43.6136 35.3375 43.3224 35.6145 43.1093 35.9696C42.8962 36.3247 42.7897 36.7343 42.7897 37.1983V43.6116H40.2187ZM52.2577 43.8247C51.1923 43.8247 50.269 43.5903 49.4878 43.1216C48.7065 42.6528 48.1005 41.997 47.6696 41.1542C47.2435 40.3114 47.0304 39.3266 47.0304 38.1997C47.0304 37.0728 47.2435 36.0856 47.6696 35.2381C48.1005 34.3905 48.7065 33.7324 49.4878 33.2636C50.269 32.7949 51.1923 32.5605 52.2577 32.5605C53.323 32.5605 54.2463 32.7949 55.0276 33.2636C55.8088 33.7324 56.4125 34.3905 56.8386 35.2381C57.2695 36.0856 57.4849 37.0728 57.4849 38.1997C57.4849 39.3266 57.2695 40.3114 56.8386 41.1542C56.4125 41.997 55.8088 42.6528 55.0276 43.1216C54.2463 43.5903 53.323 43.8247 52.2577 43.8247ZM52.2719 41.765C52.8495 41.765 53.3325 41.6064 53.7207 41.2892C54.109 40.9672 54.3978 40.5363 54.5872 39.9966C54.7813 39.4568 54.8784 38.8555 54.8784 38.1926C54.8784 37.525 54.7813 36.9213 54.5872 36.3815C54.3978 35.837 54.109 35.4038 53.7207 35.0818C53.3325 34.7598 52.8495 34.5988 52.2719 34.5988C51.68 34.5988 51.1876 34.7598 50.7946 35.0818C50.4063 35.4038 50.1152 35.837 49.921 36.3815C49.7316 36.9213 49.6369 37.525 49.6369 38.1926C49.6369 38.8555 49.7316 39.4568 49.921 39.9966C50.1152 40.5363 50.4063 40.9672 50.7946 41.2892C51.1876 41.6064 51.68 41.765 52.2719 41.765ZM61.406 43.6116L58.3237 32.7025H60.9444L62.862 40.373H62.9614L64.9217 32.7025H67.514L69.4742 40.3304H69.5808L71.47 32.7025H74.0978L71.0083 43.6116H68.3308L66.2853 36.2395H66.1362L64.0907 43.6116H61.406ZM81.1403 32.7025V34.6912H74.869V32.7025H81.1403ZM76.4173 30.0889H78.9884V40.3304C78.9884 40.676 79.0404 40.9412 79.1446 41.1258C79.2535 41.3058 79.3956 41.4289 79.5707 41.4952C79.7459 41.5614 79.9401 41.5946 80.1531 41.5946C80.3141 41.5946 80.4609 41.5828 80.5935 41.5591C80.7308 41.5354 80.8349 41.5141 80.906 41.4952L81.3392 43.5051C81.2019 43.5524 81.0054 43.6045 80.7497 43.6613C80.4988 43.7182 80.191 43.7513 79.8264 43.7608C79.1825 43.7797 78.6025 43.6827 78.0864 43.4696C77.5703 43.2518 77.1607 42.9156 76.8577 42.4611C76.5594 42.0065 76.4126 41.4383 76.4173 40.7565V30.0889ZM85.896 37.2196V43.6116H83.3249V29.0662H85.8391V34.5562H85.967C86.2227 33.9407 86.618 33.4554 87.1531 33.1003C87.6928 32.7404 88.3794 32.5605 89.2127 32.5605C89.9703 32.5605 90.6308 32.7191 91.1942 33.0363C91.7577 33.3536 92.1933 33.8176 92.5011 34.4284C92.8136 35.0392 92.9698 35.7849 92.9698 36.6656V43.6116H90.3988V37.0633C90.3988 36.3294 90.2094 35.7589 89.8306 35.3517C89.4566 34.9398 88.931 34.7338 88.2539 34.7338C87.7994 34.7338 87.3922 34.8332 87.0323 35.0321C86.6772 35.2262 86.3978 35.5079 86.1942 35.8773C85.9954 36.2466 85.896 36.694 85.896 37.2196Z" fill="#131313"/>
<path d="M458.358 31.9298H459.77L462.594 36.6827H462.713L465.537 31.9298H466.949L463.27 37.9156V42.1116H462.037V37.9156L458.358 31.9298ZM470.206 42.2707C469.47 42.2707 468.836 42.1083 468.302 41.7835C467.772 41.4554 467.362 40.998 467.074 40.4113C466.789 39.8214 466.646 39.1353 466.646 38.3531C466.646 37.5709 466.789 36.8815 467.074 36.2849C467.362 35.685 467.763 35.2177 468.277 34.8829C468.794 34.5449 469.397 34.3758 470.087 34.3758C470.484 34.3758 470.877 34.4421 471.265 34.5747C471.653 34.7073 472.006 34.9227 472.324 35.221C472.642 35.516 472.896 35.9071 473.085 36.3943C473.274 36.8815 473.368 37.4814 473.368 38.194V38.6912H467.482V37.677H472.175C472.175 37.2461 472.089 36.8616 471.916 36.5236C471.747 36.1855 471.505 35.9187 471.19 35.7231C470.879 35.5276 470.511 35.4298 470.087 35.4298C469.619 35.4298 469.215 35.5458 468.874 35.7778C468.536 36.0065 468.275 36.3048 468.093 36.6727C467.911 37.0406 467.82 37.435 467.82 37.856V38.5321C467.82 39.1088 467.919 39.5977 468.118 39.9987C468.32 40.3964 468.6 40.6997 468.958 40.9085C469.316 41.114 469.732 41.2167 470.206 41.2167C470.514 41.2167 470.793 41.1737 471.041 41.0875C471.293 40.998 471.51 40.8654 471.693 40.6898C471.875 40.5108 472.016 40.2887 472.115 40.0236L473.249 40.3417C473.129 40.7262 472.929 41.0643 472.647 41.356C472.365 41.6443 472.017 41.8697 471.603 42.0321C471.189 42.1912 470.723 42.2707 470.206 42.2707ZM477.1 42.2906C476.616 42.2906 476.177 42.1995 475.782 42.0172C475.388 41.8316 475.075 41.5648 474.843 41.2167C474.611 40.8654 474.495 40.4412 474.495 39.944C474.495 39.5065 474.581 39.1519 474.753 38.8801C474.926 38.605 475.156 38.3896 475.444 38.2338C475.733 38.078 476.051 37.962 476.399 37.8858C476.75 37.8062 477.103 37.7433 477.458 37.6969C477.922 37.6372 478.298 37.5925 478.586 37.5626C478.878 37.5295 479.09 37.4748 479.223 37.3986C479.359 37.3223 479.427 37.1898 479.427 37.0008V36.9611C479.427 36.4705 479.292 36.0894 479.024 35.8176C478.759 35.5458 478.356 35.4099 477.816 35.4099C477.256 35.4099 476.817 35.5326 476.498 35.7778C476.18 36.0231 475.956 36.2849 475.827 36.5633L474.714 36.1656C474.912 35.7016 475.178 35.3403 475.509 35.0818C475.844 34.82 476.208 34.6377 476.603 34.5349C477 34.4289 477.392 34.3758 477.776 34.3758C478.021 34.3758 478.303 34.4057 478.621 34.4653C478.943 34.5217 479.253 34.6393 479.551 34.8183C479.853 34.9973 480.103 35.2674 480.302 35.6287C480.5 35.9899 480.6 36.4738 480.6 37.0804V42.1116H479.427V41.0775H479.367C479.287 41.2433 479.155 41.4206 478.969 41.6095C478.784 41.7984 478.537 41.9592 478.228 42.0917C477.92 42.2243 477.544 42.2906 477.1 42.2906ZM477.279 41.2366C477.743 41.2366 478.134 41.1455 478.452 40.9632C478.774 40.7809 479.016 40.5456 479.178 40.2572C479.344 39.9689 479.427 39.6656 479.427 39.3474V38.2736C479.377 38.3332 479.268 38.3879 479.099 38.4376C478.933 38.484 478.741 38.5255 478.522 38.5619C478.306 38.5951 478.096 38.6249 477.89 38.6514C477.688 38.6746 477.524 38.6945 477.398 38.7111C477.093 38.7508 476.808 38.8155 476.543 38.905C476.281 38.9911 476.069 39.122 475.907 39.2977C475.748 39.4701 475.668 39.7054 475.668 40.0037C475.668 40.4113 475.819 40.7196 476.121 40.9284C476.425 41.1339 476.812 41.2366 477.279 41.2366ZM482.441 42.1116V34.4753H483.575V35.6287H483.655C483.794 35.2508 484.046 34.9443 484.41 34.7089C484.775 34.4736 485.186 34.356 485.643 34.356C485.729 34.356 485.837 34.3576 485.966 34.3609C486.096 34.3642 486.193 34.3692 486.26 34.3758V35.569C486.22 35.5591 486.129 35.5442 485.986 35.5243C485.847 35.5011 485.699 35.4895 485.544 35.4895C485.173 35.4895 484.841 35.5674 484.549 35.7231C484.261 35.8756 484.032 36.0877 483.863 36.3595C483.698 36.628 483.615 36.9345 483.615 37.2792V42.1116H482.441ZM488.524 31.9298V42.1116H487.35V31.9298H488.524ZM491.128 44.9753C490.93 44.9753 490.752 44.9587 490.596 44.9256C490.441 44.8957 490.333 44.8659 490.273 44.8361L490.572 43.802C490.857 43.8749 491.108 43.9014 491.327 43.8815C491.546 43.8616 491.74 43.7639 491.909 43.5882C492.081 43.4158 492.239 43.1358 492.381 42.748L492.6 42.1514L489.776 34.4753H491.049L493.157 40.5605H493.236L495.344 34.4753H496.617L493.376 43.2253C493.23 43.6197 493.049 43.9462 492.834 44.2047C492.618 44.4665 492.368 44.6604 492.083 44.7863C491.801 44.9123 491.483 44.9753 491.128 44.9753Z" fill="#454545"/>
<path d="M505.5 34.8616L509 38.3616L512.5 34.8616" stroke="#7D7D7D" stroke-linecap="round" stroke-linejoin="round"/>
<line x1="80" y1="201.612" x2="80" y2="72.6116" stroke="#F1F1F1"/>
<path d="M69.8136 228.612V227.816L72.2746 225.266C72.5374 224.989 72.754 224.747 72.9244 224.538C73.0973 224.328 73.2263 224.128 73.3115 223.938C73.3967 223.749 73.4393 223.548 73.4393 223.335C73.4393 223.093 73.3825 222.885 73.2689 222.71C73.1553 222.532 73.0002 222.396 72.8037 222.301C72.6072 222.204 72.3858 222.156 72.1396 222.156C71.8792 222.156 71.6519 222.209 71.4578 222.315C71.2637 222.422 71.1145 222.572 71.0104 222.766C70.9062 222.961 70.8541 223.188 70.8541 223.448H69.8065C69.8065 223.006 69.9083 222.618 70.1119 222.287C70.3155 221.956 70.5949 221.699 70.95 221.516C71.3051 221.332 71.7088 221.239 72.1609 221.239C72.6179 221.239 73.0203 221.331 73.3683 221.513C73.7187 221.693 73.9921 221.939 74.1886 222.252C74.3851 222.562 74.4834 222.912 74.4834 223.303C74.4834 223.573 74.4325 223.837 74.3307 224.095C74.2313 224.353 74.0572 224.64 73.8087 224.958C73.5601 225.272 73.2144 225.655 72.7717 226.105L71.3264 227.617V227.671H74.6006V228.612H69.8136ZM78.1784 228.732C77.6173 228.73 77.1379 228.582 76.7402 228.288C76.3425 227.995 76.0383 227.568 75.8276 227.007C75.6169 226.445 75.5115 225.77 75.5115 224.979C75.5115 224.19 75.6169 223.517 75.8276 222.958C76.0406 222.4 76.346 221.973 76.7437 221.68C77.1438 221.386 77.6221 221.239 78.1784 221.239C78.7348 221.239 79.2118 221.387 79.6095 221.683C80.0072 221.977 80.3115 222.403 80.5222 222.962C80.7352 223.518 80.8418 224.19 80.8418 224.979C80.8418 225.772 80.7364 226.449 80.5257 227.01C80.315 227.569 80.0108 227.996 79.6131 228.292C79.2153 228.586 78.7371 228.732 78.1784 228.732ZM78.1784 227.784C78.6708 227.784 79.0555 227.544 79.3325 227.063C79.6119 226.583 79.7516 225.888 79.7516 224.979C79.7516 224.375 79.6876 223.865 79.5598 223.448C79.4343 223.029 79.2532 222.712 79.0165 222.497C78.7821 222.279 78.5027 222.17 78.1784 222.17C77.6884 222.17 77.3036 222.411 77.0243 222.894C76.7449 223.377 76.6041 224.072 76.6017 224.979C76.6017 225.585 76.6644 226.097 76.7899 226.516C76.9178 226.933 77.0989 227.249 77.3332 227.465C77.5676 227.678 77.8493 227.784 78.1784 227.784ZM84.5608 221.339V228.612H83.4599V222.44H83.4173L81.6772 223.576V222.525L83.4919 221.339H84.5608ZM88.7672 228.711C88.4428 228.706 88.1232 228.647 87.8083 228.534C87.4958 228.42 87.2118 228.23 86.9561 227.965C86.7004 227.7 86.4956 227.344 86.3417 226.896C86.1902 226.449 86.1145 225.89 86.1145 225.22C86.1145 224.586 86.1772 224.022 86.3027 223.53C86.4305 223.038 86.614 222.622 86.8531 222.284C87.0922 221.943 87.381 221.683 87.7196 221.506C88.0581 221.328 88.4381 221.239 88.8595 221.239C89.2927 221.239 89.6774 221.325 90.0136 221.495C90.3498 221.666 90.622 221.901 90.8304 222.202C91.0411 222.502 91.1748 222.845 91.2316 223.228H90.1485C90.0752 222.925 89.9296 222.678 89.7118 222.486C89.494 222.294 89.2099 222.198 88.8595 222.198C88.3268 222.198 87.9113 222.43 87.613 222.894C87.3171 223.358 87.168 224.003 87.1656 224.83H87.2189C87.3443 224.624 87.4982 224.449 87.6805 224.304C87.8652 224.157 88.0711 224.045 88.2984 223.967C88.528 223.886 88.7695 223.846 89.0228 223.846C89.4442 223.846 89.8254 223.949 90.1663 224.155C90.5096 224.359 90.783 224.64 90.9866 225C91.1902 225.36 91.292 225.772 91.292 226.236C91.292 226.7 91.1867 227.12 90.976 227.497C90.7676 227.873 90.4741 228.171 90.0953 228.391C89.7165 228.609 89.2738 228.716 88.7672 228.711ZM88.7636 227.788C89.043 227.788 89.2927 227.719 89.5129 227.582C89.7331 227.444 89.9071 227.26 90.0349 227.028C90.1627 226.796 90.2267 226.537 90.2267 226.25C90.2267 225.971 90.1639 225.716 90.0385 225.487C89.9154 225.257 89.7449 225.075 89.5271 224.94C89.3117 224.805 89.0654 224.737 88.7885 224.737C88.5778 224.737 88.3824 224.778 88.2025 224.858C88.025 224.939 87.8687 225.05 87.7338 225.192C87.5988 225.334 87.4923 225.497 87.4142 225.682C87.3384 225.864 87.3005 226.057 87.3005 226.261C87.3005 226.533 87.3633 226.785 87.4887 227.017C87.6166 227.249 87.7906 227.436 88.0108 227.578C88.2333 227.718 88.4842 227.788 88.7636 227.788Z" fill="#7D7D7D"/>
<line x1="137.375" y1="201.612" x2="137.375" y2="72.6116" stroke="#F1F1F1"/>
<path d="M127.472 228.612V227.816L129.933 225.266C130.196 224.989 130.412 224.747 130.583 224.538C130.755 224.328 130.884 224.128 130.97 223.938C131.055 223.749 131.098 223.548 131.098 223.335C131.098 223.093 131.041 222.885 130.927 222.71C130.813 222.532 130.658 222.396 130.462 222.301C130.265 222.204 130.044 222.156 129.798 222.156C129.537 222.156 129.31 222.209 129.116 222.315C128.922 222.422 128.773 222.572 128.669 222.766C128.564 222.961 128.512 223.188 128.512 223.448H127.465C127.465 223.006 127.567 222.618 127.77 222.287C127.974 221.956 128.253 221.699 128.608 221.516C128.963 221.332 129.367 221.239 129.819 221.239C130.276 221.239 130.679 221.331 131.027 221.513C131.377 221.693 131.65 221.939 131.847 222.252C132.043 222.562 132.142 222.912 132.142 223.303C132.142 223.573 132.091 223.837 131.989 224.095C131.889 224.353 131.715 224.64 131.467 224.958C131.218 225.272 130.873 225.655 130.43 226.105L128.985 227.617V227.671H132.259V228.612H127.472ZM135.837 228.732C135.276 228.73 134.796 228.582 134.398 228.288C134.001 227.995 133.696 227.568 133.486 227.007C133.275 226.445 133.17 225.77 133.17 224.979C133.17 224.19 133.275 223.517 133.486 222.958C133.699 222.4 134.004 221.973 134.402 221.68C134.802 221.386 135.28 221.239 135.837 221.239C136.393 221.239 136.87 221.387 137.268 221.683C137.665 221.977 137.97 222.403 138.18 222.962C138.393 223.518 138.5 224.19 138.5 224.979C138.5 225.772 138.395 226.449 138.184 227.01C137.973 227.569 137.669 227.996 137.271 228.292C136.874 228.586 136.395 228.732 135.837 228.732ZM135.837 227.784C136.329 227.784 136.714 227.544 136.991 227.063C137.27 226.583 137.41 225.888 137.41 224.979C137.41 224.375 137.346 223.865 137.218 223.448C137.093 223.029 136.911 222.712 136.675 222.497C136.44 222.279 136.161 222.17 135.837 222.17C135.347 222.17 134.962 222.411 134.682 222.894C134.403 223.377 134.262 224.072 134.26 224.979C134.26 225.585 134.323 226.097 134.448 226.516C134.576 226.933 134.757 227.249 134.991 227.465C135.226 227.678 135.508 227.784 135.837 227.784ZM142.219 221.339V228.612H141.118V222.44H141.075L139.335 223.576V222.525L141.15 221.339H142.219ZM144.131 228.612L147.306 222.333V222.28H143.634V221.339H148.442V222.312L145.278 228.612H144.131Z" fill="#7D7D7D"/>
<line x1="194.75" y1="201.612" x2="194.75" y2="72.6116" stroke="#F1F1F1"/>
<path d="M184.583 228.612V227.816L187.044 225.266C187.307 224.989 187.524 224.747 187.694 224.538C187.867 224.328 187.996 224.128 188.081 223.938C188.166 223.749 188.209 223.548 188.209 223.335C188.209 223.093 188.152 222.885 188.038 222.71C187.925 222.532 187.77 222.396 187.573 222.301C187.377 222.204 187.155 222.156 186.909 222.156C186.649 222.156 186.421 222.209 186.227 222.315C186.033 222.422 185.884 222.572 185.78 222.766C185.676 222.961 185.624 223.188 185.624 223.448H184.576C184.576 223.006 184.678 222.618 184.881 222.287C185.085 221.956 185.364 221.699 185.72 221.516C186.075 221.332 186.478 221.239 186.93 221.239C187.387 221.239 187.79 221.331 188.138 221.513C188.488 221.693 188.762 221.939 188.958 222.252C189.155 222.562 189.253 222.912 189.253 223.303C189.253 223.573 189.202 223.837 189.1 224.095C189.001 224.353 188.827 224.64 188.578 224.958C188.33 225.272 187.984 225.655 187.541 226.105L186.096 227.617V227.671H189.37V228.612H184.583ZM192.948 228.732C192.387 228.73 191.907 228.582 191.51 228.288C191.112 227.995 190.808 227.568 190.597 227.007C190.386 226.445 190.281 225.77 190.281 224.979C190.281 224.19 190.386 223.517 190.597 222.958C190.81 222.4 191.116 221.973 191.513 221.68C191.913 221.386 192.392 221.239 192.948 221.239C193.504 221.239 193.981 221.387 194.379 221.683C194.777 221.977 195.081 222.403 195.292 222.962C195.505 223.518 195.611 224.19 195.611 224.979C195.611 225.772 195.506 226.449 195.295 227.01C195.085 227.569 194.78 227.996 194.383 228.292C193.985 228.586 193.507 228.732 192.948 228.732ZM192.948 227.784C193.44 227.784 193.825 227.544 194.102 227.063C194.381 226.583 194.521 225.888 194.521 224.979C194.521 224.375 194.457 223.865 194.329 223.448C194.204 223.029 194.023 222.712 193.786 222.497C193.552 222.279 193.272 222.17 192.948 222.17C192.458 222.17 192.073 222.411 191.794 222.894C191.514 223.377 191.374 224.072 191.371 224.979C191.371 225.585 191.434 226.097 191.559 226.516C191.687 226.933 191.868 227.249 192.103 227.465C192.337 227.678 192.619 227.784 192.948 227.784ZM199.33 221.339V228.612H198.229V222.44H198.187L196.447 223.576V222.525L198.261 221.339H199.33ZM203.455 228.711C202.946 228.711 202.496 228.623 202.106 228.448C201.717 228.273 201.413 228.032 201.193 227.724C200.973 227.416 200.864 227.066 200.866 226.673C200.864 226.365 200.927 226.082 201.054 225.824C201.185 225.564 201.361 225.347 201.584 225.174C201.806 224.999 202.055 224.888 202.329 224.84V224.798C201.967 224.71 201.677 224.516 201.459 224.215C201.241 223.915 201.134 223.569 201.136 223.178C201.134 222.807 201.232 222.475 201.431 222.184C201.632 221.891 201.908 221.66 202.258 221.492C202.609 221.324 203.008 221.239 203.455 221.239C203.898 221.239 204.293 221.325 204.641 221.495C204.991 221.663 205.267 221.894 205.469 222.188C205.67 222.479 205.772 222.809 205.774 223.178C205.772 223.569 205.66 223.915 205.44 224.215C205.22 224.516 204.933 224.71 204.581 224.798V224.84C204.853 224.888 205.098 224.999 205.316 225.174C205.536 225.347 205.711 225.564 205.841 225.824C205.974 226.082 206.041 226.365 206.044 226.673C206.041 227.066 205.93 227.416 205.71 227.724C205.49 228.032 205.184 228.273 204.794 228.448C204.406 228.623 203.959 228.711 203.455 228.711ZM203.455 227.813C203.756 227.813 204.016 227.763 204.236 227.663C204.456 227.562 204.627 227.421 204.748 227.241C204.868 227.059 204.93 226.846 204.932 226.602C204.93 226.348 204.864 226.125 204.733 225.931C204.606 225.736 204.432 225.584 204.211 225.472C203.991 225.361 203.739 225.306 203.455 225.306C203.169 225.306 202.914 225.361 202.692 225.472C202.469 225.584 202.294 225.736 202.166 225.931C202.038 226.125 201.975 226.348 201.978 226.602C201.975 226.846 202.033 227.059 202.152 227.241C202.272 227.421 202.444 227.562 202.667 227.663C202.889 227.763 203.152 227.813 203.455 227.813ZM203.455 224.428C203.696 224.428 203.911 224.38 204.098 224.283C204.285 224.186 204.432 224.051 204.538 223.878C204.647 223.705 204.703 223.503 204.705 223.271C204.703 223.043 204.648 222.845 204.542 222.674C204.437 222.504 204.292 222.372 204.105 222.28C203.918 222.185 203.701 222.138 203.455 222.138C203.204 222.138 202.984 222.185 202.794 222.28C202.607 222.372 202.462 222.504 202.358 222.674C202.254 222.845 202.203 223.043 202.205 223.271C202.203 223.503 202.255 223.705 202.361 223.878C202.468 224.051 202.615 224.186 202.802 224.283C202.991 224.38 203.209 224.428 203.455 224.428Z" fill="#7D7D7D"/>
<line x1="252.125" y1="201.612" x2="252.125" y2="72.6116" stroke="#F1F1F1"/>
<path d="M241.939 228.612V227.816L244.4 225.266C244.662 224.989 244.879 224.747 245.049 224.538C245.222 224.328 245.351 224.128 245.437 223.938C245.522 223.749 245.564 223.548 245.564 223.335C245.564 223.093 245.508 222.885 245.394 222.71C245.28 222.532 245.125 222.396 244.929 222.301C244.732 222.204 244.511 222.156 244.265 222.156C244.004 222.156 243.777 222.209 243.583 222.315C243.389 222.422 243.24 222.572 243.135 222.766C243.031 222.961 242.979 223.188 242.979 223.448H241.932C241.932 223.006 242.033 222.618 242.237 222.287C242.441 221.956 242.72 221.699 243.075 221.516C243.43 221.332 243.834 221.239 244.286 221.239C244.743 221.239 245.145 221.331 245.493 221.513C245.844 221.693 246.117 221.939 246.314 222.252C246.51 222.562 246.608 222.912 246.608 223.303C246.608 223.573 246.557 223.837 246.456 224.095C246.356 224.353 246.182 224.64 245.934 224.958C245.685 225.272 245.339 225.655 244.897 226.105L243.451 227.617V227.671H246.726V228.612H241.939ZM250.303 228.732C249.742 228.73 249.263 228.582 248.865 228.288C248.467 227.995 248.163 227.568 247.953 227.007C247.742 226.445 247.637 225.77 247.637 224.979C247.637 224.19 247.742 223.517 247.953 222.958C248.166 222.4 248.471 221.973 248.869 221.68C249.269 221.386 249.747 221.239 250.303 221.239C250.86 221.239 251.337 221.387 251.735 221.683C252.132 221.977 252.436 222.403 252.647 222.962C252.86 223.518 252.967 224.19 252.967 224.979C252.967 225.772 252.861 226.449 252.651 227.01C252.44 227.569 252.136 227.996 251.738 228.292C251.34 228.586 250.862 228.732 250.303 228.732ZM250.303 227.784C250.796 227.784 251.181 227.544 251.458 227.063C251.737 226.583 251.877 225.888 251.877 224.979C251.877 224.375 251.813 223.865 251.685 223.448C251.559 223.029 251.378 222.712 251.141 222.497C250.907 222.279 250.628 222.17 250.303 222.17C249.813 222.17 249.429 222.411 249.149 222.894C248.87 223.377 248.729 224.072 248.727 224.979C248.727 225.585 248.789 226.097 248.915 226.516C249.043 226.933 249.224 227.249 249.458 227.465C249.693 227.678 249.974 227.784 250.303 227.784ZM256.686 221.339V228.612H255.585V222.44H255.542L253.802 223.576V222.525L255.617 221.339H256.686ZM260.771 221.239C261.096 221.242 261.415 221.301 261.73 221.417C262.045 221.533 262.329 221.722 262.582 221.985C262.838 222.248 263.042 222.603 263.193 223.051C263.347 223.496 263.425 224.05 263.428 224.712C263.428 225.349 263.364 225.916 263.236 226.413C263.108 226.908 262.925 227.326 262.685 227.667C262.449 228.008 262.161 228.267 261.823 228.445C261.484 228.622 261.103 228.711 260.679 228.711C260.246 228.711 259.861 228.626 259.525 228.455C259.189 228.285 258.915 228.049 258.705 227.749C258.494 227.446 258.363 227.098 258.31 226.705H259.394C259.465 227.017 259.609 227.27 259.827 227.465C260.047 227.656 260.331 227.752 260.679 227.752C261.212 227.752 261.627 227.52 261.926 227.056C262.224 226.59 262.374 225.939 262.377 225.103H262.32C262.197 225.307 262.043 225.482 261.858 225.629C261.676 225.775 261.471 225.889 261.244 225.97C261.016 226.05 260.774 226.09 260.516 226.09C260.097 226.09 259.716 225.987 259.372 225.781C259.029 225.575 258.756 225.293 258.552 224.933C258.348 224.573 258.247 224.162 258.247 223.7C258.247 223.241 258.351 222.824 258.559 222.45C258.77 222.076 259.063 221.78 259.44 221.563C259.819 221.342 260.262 221.235 260.771 221.239ZM260.775 222.163C260.498 222.163 260.248 222.231 260.026 222.369C259.806 222.504 259.631 222.687 259.504 222.919C259.376 223.149 259.312 223.404 259.312 223.686C259.312 223.968 259.373 224.224 259.497 224.453C259.622 224.681 259.792 224.862 260.008 224.997C260.226 225.129 260.474 225.195 260.754 225.195C260.962 225.195 261.156 225.155 261.336 225.075C261.516 224.994 261.673 224.883 261.808 224.741C261.943 224.596 262.049 224.433 262.124 224.251C262.2 224.069 262.238 223.877 262.238 223.676C262.238 223.408 262.174 223.159 262.046 222.93C261.921 222.7 261.748 222.516 261.528 222.376C261.308 222.234 261.057 222.163 260.775 222.163Z" fill="#7D7D7D"/>
<line x1="310.5" y1="201.612" x2="310.5" y2="72.6116" stroke="#F1F1F1"/>
<path d="M299.562 228.612V227.816L302.023 225.266C302.285 224.989 302.502 224.747 302.672 224.538C302.845 224.328 302.974 224.128 303.06 223.938C303.145 223.749 303.187 223.548 303.187 223.335C303.187 223.093 303.131 222.885 303.017 222.71C302.903 222.532 302.748 222.396 302.552 222.301C302.355 222.204 302.134 222.156 301.888 222.156C301.627 222.156 301.4 222.209 301.206 222.315C301.012 222.422 300.863 222.572 300.758 222.766C300.654 222.961 300.602 223.188 300.602 223.448H299.555C299.555 223.006 299.656 222.618 299.86 222.287C300.064 221.956 300.343 221.699 300.698 221.516C301.053 221.332 301.457 221.239 301.909 221.239C302.366 221.239 302.768 221.331 303.116 221.513C303.467 221.693 303.74 221.939 303.937 222.252C304.133 222.562 304.231 222.912 304.231 223.303C304.231 223.573 304.181 223.837 304.079 224.095C303.979 224.353 303.805 224.64 303.557 224.958C303.308 225.272 302.962 225.655 302.52 226.105L301.074 227.617V227.671H304.349V228.612H299.562ZM307.926 228.732C307.365 228.73 306.886 228.582 306.488 228.288C306.091 227.995 305.786 227.568 305.576 227.007C305.365 226.445 305.26 225.77 305.26 224.979C305.26 224.19 305.365 223.517 305.576 222.958C305.789 222.4 306.094 221.973 306.492 221.68C306.892 221.386 307.37 221.239 307.926 221.239C308.483 221.239 308.96 221.387 309.358 221.683C309.755 221.977 310.06 222.403 310.27 222.962C310.483 223.518 310.59 224.19 310.59 224.979C310.59 225.772 310.484 226.449 310.274 227.01C310.063 227.569 309.759 227.996 309.361 228.292C308.963 228.586 308.485 228.732 307.926 228.732ZM307.926 227.784C308.419 227.784 308.804 227.544 309.081 227.063C309.36 226.583 309.5 225.888 309.5 224.979C309.5 224.375 309.436 223.865 309.308 223.448C309.182 223.029 309.001 222.712 308.765 222.497C308.53 222.279 308.251 222.17 307.926 222.17C307.436 222.17 307.052 222.411 306.772 222.894C306.493 223.377 306.352 224.072 306.35 224.979C306.35 225.585 306.412 226.097 306.538 226.516C306.666 226.933 306.847 227.249 307.081 227.465C307.316 227.678 307.597 227.784 307.926 227.784ZM311.55 228.612V227.816L314.011 225.266C314.273 224.989 314.49 224.747 314.66 224.538C314.833 224.328 314.962 224.128 315.047 223.938C315.133 223.749 315.175 223.548 315.175 223.335C315.175 223.093 315.118 222.885 315.005 222.71C314.891 222.532 314.736 222.396 314.54 222.301C314.343 222.204 314.122 222.156 313.876 222.156C313.615 222.156 313.388 222.209 313.194 222.315C313 222.422 312.85 222.572 312.746 222.766C312.642 222.961 312.59 223.188 312.59 223.448H311.542C311.542 223.006 311.644 222.618 311.848 222.287C312.051 221.956 312.331 221.699 312.686 221.516C313.041 221.332 313.445 221.239 313.897 221.239C314.354 221.239 314.756 221.331 315.104 221.513C315.455 221.693 315.728 221.939 315.925 222.252C316.121 222.562 316.219 222.912 316.219 223.303C316.219 223.573 316.168 223.837 316.067 224.095C315.967 224.353 315.793 224.64 315.545 224.958C315.296 225.272 314.95 225.655 314.508 226.105L313.062 227.617V227.671H316.337V228.612H311.55ZM319.914 228.732C319.353 228.73 318.874 228.582 318.476 228.288C318.078 227.995 317.774 227.568 317.563 227.007C317.353 226.445 317.247 225.77 317.247 224.979C317.247 224.19 317.353 223.517 317.563 222.958C317.777 222.4 318.082 221.973 318.48 221.68C318.88 221.386 319.358 221.239 319.914 221.239C320.471 221.239 320.948 221.387 321.345 221.683C321.743 221.977 322.047 222.403 322.258 222.962C322.471 223.518 322.578 224.19 322.578 224.979C322.578 225.772 322.472 226.449 322.262 227.01C322.051 227.569 321.747 227.996 321.349 228.292C320.951 228.586 320.473 228.732 319.914 228.732ZM319.914 227.784C320.407 227.784 320.791 227.544 321.068 227.063C321.348 226.583 321.487 225.888 321.487 224.979C321.487 224.375 321.424 223.865 321.296 223.448C321.17 223.029 320.989 222.712 320.752 222.497C320.518 222.279 320.239 222.17 319.914 222.17C319.424 222.17 319.04 222.411 318.76 222.894C318.481 223.377 318.34 224.072 318.338 224.979C318.338 225.585 318.4 226.097 318.526 226.516C318.654 226.933 318.835 227.249 319.069 227.465C319.304 227.678 319.585 227.784 319.914 227.784Z" fill="#7D7D7D"/>
<line x1="368.875" y1="201.612" x2="368.875" y2="72.6116" stroke="#F1F1F1"/>
<path d="M358.801 228.612V227.816L361.262 225.266C361.525 224.989 361.741 224.747 361.912 224.538C362.085 224.328 362.214 224.128 362.299 223.938C362.384 223.749 362.427 223.548 362.427 223.335C362.427 223.093 362.37 222.885 362.256 222.71C362.143 222.532 361.987 222.396 361.791 222.301C361.595 222.204 361.373 222.156 361.127 222.156C360.867 222.156 360.639 222.209 360.445 222.315C360.251 222.422 360.102 222.572 359.998 222.766C359.894 222.961 359.841 223.188 359.841 223.448H358.794C358.794 223.006 358.896 222.618 359.099 222.287C359.303 221.956 359.582 221.699 359.937 221.516C360.292 221.332 360.696 221.239 361.148 221.239C361.605 221.239 362.008 221.331 362.356 221.513C362.706 221.693 362.979 221.939 363.176 222.252C363.372 222.562 363.471 222.912 363.471 223.303C363.471 223.573 363.42 223.837 363.318 224.095C363.219 224.353 363.045 224.64 362.796 224.958C362.547 225.272 362.202 225.655 361.759 226.105L360.314 227.617V227.671H363.588V228.612H358.801ZM367.166 228.732C366.605 228.73 366.125 228.582 365.728 228.288C365.33 227.995 365.026 227.568 364.815 227.007C364.604 226.445 364.499 225.77 364.499 224.979C364.499 224.19 364.604 223.517 364.815 222.958C365.028 222.4 365.333 221.973 365.731 221.68C366.131 221.386 366.609 221.239 367.166 221.239C367.722 221.239 368.199 221.387 368.597 221.683C368.995 221.977 369.299 222.403 369.509 222.962C369.723 223.518 369.829 224.19 369.829 224.979C369.829 225.772 369.724 226.449 369.513 227.01C369.302 227.569 368.998 227.996 368.6 228.292C368.203 228.586 367.724 228.732 367.166 228.732ZM367.166 227.784C367.658 227.784 368.043 227.544 368.32 227.063C368.599 226.583 368.739 225.888 368.739 224.979C368.739 224.375 368.675 223.865 368.547 223.448C368.422 223.029 368.241 222.712 368.004 222.497C367.769 222.279 367.49 222.17 367.166 222.17C366.676 222.17 366.291 222.411 366.012 222.894C365.732 223.377 365.591 224.072 365.589 224.979C365.589 225.585 365.652 226.097 365.777 226.516C365.905 226.933 366.086 227.249 366.321 227.465C366.555 227.678 366.837 227.784 367.166 227.784ZM370.789 228.612V227.816L373.25 225.266C373.513 224.989 373.729 224.747 373.9 224.538C374.072 224.328 374.201 224.128 374.287 223.938C374.372 223.749 374.415 223.548 374.415 223.335C374.415 223.093 374.358 222.885 374.244 222.71C374.13 222.532 373.975 222.396 373.779 222.301C373.582 222.204 373.361 222.156 373.115 222.156C372.854 222.156 372.627 222.209 372.433 222.315C372.239 222.422 372.09 222.572 371.986 222.766C371.881 222.961 371.829 223.188 371.829 223.448H370.782C370.782 223.006 370.884 222.618 371.087 222.287C371.291 221.956 371.57 221.699 371.925 221.516C372.28 221.332 372.684 221.239 373.136 221.239C373.593 221.239 373.996 221.331 374.344 221.513C374.694 221.693 374.967 221.939 375.164 222.252C375.36 222.562 375.459 222.912 375.459 223.303C375.459 223.573 375.408 223.837 375.306 224.095C375.206 224.353 375.032 224.64 374.784 224.958C374.535 225.272 374.19 225.655 373.747 226.105L372.302 227.617V227.671H375.576V228.612H370.789ZM379.381 221.339V228.612H378.28V222.44H378.237L376.497 223.576V222.525L378.312 221.339H379.381Z" fill="#7D7D7D"/>
<line x1="427.25" y1="201.612" x2="427.25" y2="72.6116" stroke="#F1F1F1"/>
<path d="M416.473 228.612V227.816L418.934 225.266C419.197 224.989 419.413 224.747 419.584 224.538C419.756 224.328 419.885 224.128 419.971 223.938C420.056 223.749 420.099 223.548 420.099 223.335C420.099 223.093 420.042 222.885 419.928 222.71C419.814 222.532 419.659 222.396 419.463 222.301C419.266 222.204 419.045 222.156 418.799 222.156C418.538 222.156 418.311 222.209 418.117 222.315C417.923 222.422 417.774 222.572 417.67 222.766C417.565 222.961 417.513 223.188 417.513 223.448H416.466C416.466 223.006 416.568 222.618 416.771 222.287C416.975 221.956 417.254 221.699 417.609 221.516C417.964 221.332 418.368 221.239 418.82 221.239C419.277 221.239 419.679 221.331 420.028 221.513C420.378 221.693 420.651 221.939 420.848 222.252C421.044 222.562 421.143 222.912 421.143 223.303C421.143 223.573 421.092 223.837 420.99 224.095C420.89 224.353 420.716 224.64 420.468 224.958C420.219 225.272 419.874 225.655 419.431 226.105L417.986 227.617V227.671H421.26V228.612H416.473ZM424.838 228.732C424.277 228.73 423.797 228.582 423.399 228.288C423.002 227.995 422.697 227.568 422.487 227.007C422.276 226.445 422.171 225.77 422.171 224.979C422.171 224.19 422.276 223.517 422.487 222.958C422.7 222.4 423.005 221.973 423.403 221.68C423.803 221.386 424.281 221.239 424.838 221.239C425.394 221.239 425.871 221.387 426.269 221.683C426.666 221.977 426.971 222.403 427.181 222.962C427.394 223.518 427.501 224.19 427.501 224.979C427.501 225.772 427.396 226.449 427.185 227.01C426.974 227.569 426.67 227.996 426.272 228.292C425.875 228.586 425.396 228.732 424.838 228.732ZM424.838 227.784C425.33 227.784 425.715 227.544 425.992 227.063C426.271 226.583 426.411 225.888 426.411 224.979C426.411 224.375 426.347 223.865 426.219 223.448C426.094 223.029 425.912 222.712 425.676 222.497C425.441 222.279 425.162 222.17 424.838 222.17C424.348 222.17 423.963 222.411 423.683 222.894C423.404 223.377 423.263 224.072 423.261 224.979C423.261 225.585 423.324 226.097 423.449 226.516C423.577 226.933 423.758 227.249 423.992 227.465C424.227 227.678 424.509 227.784 424.838 227.784ZM428.461 228.612V227.816L430.922 225.266C431.184 224.989 431.401 224.747 431.572 224.538C431.744 224.328 431.873 224.128 431.959 223.938C432.044 223.749 432.086 223.548 432.086 223.335C432.086 223.093 432.03 222.885 431.916 222.71C431.802 222.532 431.647 222.396 431.451 222.301C431.254 222.204 431.033 222.156 430.787 222.156C430.526 222.156 430.299 222.209 430.105 222.315C429.911 222.422 429.762 222.572 429.657 222.766C429.553 222.961 429.501 223.188 429.501 223.448H428.454C428.454 223.006 428.555 222.618 428.759 222.287C428.963 221.956 429.242 221.699 429.597 221.516C429.952 221.332 430.356 221.239 430.808 221.239C431.265 221.239 431.667 221.331 432.015 221.513C432.366 221.693 432.639 221.939 432.836 222.252C433.032 222.562 433.13 222.912 433.13 223.303C433.13 223.573 433.08 223.837 432.978 224.095C432.878 224.353 432.704 224.64 432.456 224.958C432.207 225.272 431.862 225.655 431.419 226.105L429.973 227.617V227.671H433.248V228.612H428.461ZM434.294 228.612V227.816L436.754 225.266C437.017 224.989 437.234 224.747 437.404 224.538C437.577 224.328 437.706 224.128 437.791 223.938C437.877 223.749 437.919 223.548 437.919 223.335C437.919 223.093 437.862 222.885 437.749 222.71C437.635 222.532 437.48 222.396 437.284 222.301C437.087 222.204 436.866 222.156 436.62 222.156C436.359 222.156 436.132 222.209 435.938 222.315C435.744 222.422 435.594 222.572 435.49 222.766C435.386 222.961 435.334 223.188 435.334 223.448H434.286C434.286 223.006 434.388 222.618 434.592 222.287C434.795 221.956 435.075 221.699 435.43 221.516C435.785 221.332 436.189 221.239 436.641 221.239C437.098 221.239 437.5 221.331 437.848 221.513C438.199 221.693 438.472 221.939 438.669 222.252C438.865 222.562 438.963 222.912 438.963 223.303C438.963 223.573 438.912 223.837 438.811 224.095C438.711 224.353 438.537 224.64 438.289 224.958C438.04 225.272 437.694 225.655 437.252 226.105L435.806 227.617V227.671H439.08V228.612H434.294Z" fill="#7D7D7D"/>
<line x1="486.625" y1="201.612" x2="486.625" y2="72.6116" stroke="#F1F1F1"/>
<path d="M475.692 228.612V227.816L478.152 225.266C478.415 224.989 478.632 224.747 478.802 224.538C478.975 224.328 479.104 224.128 479.189 223.938C479.275 223.749 479.317 223.548 479.317 223.335C479.317 223.093 479.26 222.885 479.147 222.71C479.033 222.532 478.878 222.396 478.682 222.301C478.485 222.204 478.264 222.156 478.017 222.156C477.757 222.156 477.53 222.209 477.336 222.315C477.142 222.422 476.992 222.572 476.888 222.766C476.784 222.961 476.732 223.188 476.732 223.448H475.684C475.684 223.006 475.786 222.618 475.99 222.287C476.193 221.956 476.473 221.699 476.828 221.516C477.183 221.332 477.587 221.239 478.039 221.239C478.496 221.239 478.898 221.331 479.246 221.513C479.597 221.693 479.87 221.939 480.067 222.252C480.263 222.562 480.361 222.912 480.361 223.303C480.361 223.573 480.31 223.837 480.209 224.095C480.109 224.353 479.935 224.64 479.687 224.958C479.438 225.272 479.092 225.655 478.65 226.105L477.204 227.617V227.671H480.478V228.612H475.692ZM484.056 228.732C483.495 228.73 483.016 228.582 482.618 228.288C482.22 227.995 481.916 227.568 481.705 227.007C481.495 226.445 481.389 225.77 481.389 224.979C481.389 224.19 481.495 223.517 481.705 222.958C481.918 222.4 482.224 221.973 482.622 221.68C483.022 221.386 483.5 221.239 484.056 221.239C484.613 221.239 485.09 221.387 485.487 221.683C485.885 221.977 486.189 222.403 486.4 222.962C486.613 223.518 486.72 224.19 486.72 224.979C486.72 225.772 486.614 226.449 486.404 227.01C486.193 227.569 485.889 227.996 485.491 228.292C485.093 228.586 484.615 228.732 484.056 228.732ZM484.056 227.784C484.549 227.784 484.933 227.544 485.21 227.063C485.49 226.583 485.629 225.888 485.629 224.979C485.629 224.375 485.566 223.865 485.438 223.448C485.312 223.029 485.131 222.712 484.894 222.497C484.66 222.279 484.381 222.17 484.056 222.17C483.566 222.17 483.182 222.411 482.902 222.894C482.623 223.377 482.482 224.072 482.48 224.979C482.48 225.585 482.542 226.097 482.668 226.516C482.796 226.933 482.977 227.249 483.211 227.465C483.445 227.678 483.727 227.784 484.056 227.784ZM487.679 228.612V227.816L490.14 225.266C490.403 224.989 490.62 224.747 490.79 224.538C490.963 224.328 491.092 224.128 491.177 223.938C491.262 223.749 491.305 223.548 491.305 223.335C491.305 223.093 491.248 222.885 491.135 222.71C491.021 222.532 490.866 222.396 490.669 222.301C490.473 222.204 490.252 222.156 490.005 222.156C489.745 222.156 489.518 222.209 489.324 222.315C489.129 222.422 488.98 222.572 488.876 222.766C488.772 222.961 488.72 223.188 488.72 223.448H487.672C487.672 223.006 487.774 222.618 487.978 222.287C488.181 221.956 488.461 221.699 488.816 221.516C489.171 221.332 489.575 221.239 490.027 221.239C490.484 221.239 490.886 221.331 491.234 221.513C491.584 221.693 491.858 221.939 492.054 222.252C492.251 222.562 492.349 222.912 492.349 223.303C492.349 223.573 492.298 223.837 492.196 224.095C492.097 224.353 491.923 224.64 491.674 224.958C491.426 225.272 491.08 225.655 490.637 226.105L489.192 227.617V227.671H492.466V228.612H487.679ZM496.044 228.711C495.556 228.711 495.121 228.627 494.737 228.459C494.356 228.291 494.054 228.058 493.832 227.759C493.612 227.459 493.493 227.111 493.477 226.715H494.592C494.606 226.931 494.678 227.118 494.808 227.276C494.941 227.433 495.114 227.553 495.327 227.639C495.54 227.724 495.777 227.766 496.037 227.766C496.324 227.766 496.577 227.717 496.797 227.617C497.02 227.518 497.194 227.379 497.319 227.202C497.444 227.022 497.507 226.815 497.507 226.58C497.507 226.337 497.444 226.122 497.319 225.938C497.196 225.751 497.015 225.604 496.776 225.497C496.539 225.391 496.253 225.337 495.916 225.337H495.302V224.443H495.916C496.186 224.443 496.423 224.394 496.627 224.297C496.833 224.2 496.994 224.065 497.11 223.892C497.226 223.717 497.284 223.512 497.284 223.278C497.284 223.053 497.233 222.858 497.131 222.692C497.031 222.524 496.889 222.392 496.705 222.298C496.522 222.203 496.307 222.156 496.058 222.156C495.822 222.156 495.6 222.199 495.394 222.287C495.191 222.372 495.025 222.495 494.897 222.656C494.769 222.815 494.701 223.006 494.691 223.228H493.629C493.641 222.835 493.757 222.489 493.977 222.191C494.2 221.893 494.494 221.66 494.858 221.492C495.223 221.324 495.628 221.239 496.073 221.239C496.539 221.239 496.941 221.331 497.28 221.513C497.621 221.693 497.884 221.933 498.068 222.234C498.255 222.534 498.348 222.864 498.345 223.221C498.348 223.628 498.234 223.974 498.004 224.258C497.777 224.542 497.474 224.733 497.095 224.83V224.886C497.578 224.96 497.952 225.152 498.217 225.462C498.485 225.772 498.618 226.157 498.615 226.616C498.618 227.016 498.506 227.375 498.281 227.692C498.059 228.009 497.755 228.259 497.369 228.441C496.983 228.621 496.541 228.711 496.044 228.711Z" fill="#7D7D7D"/>
<path d="M27.4588 75.3389V82.6116H26.358V76.4398H26.3153L24.5753 77.5761V76.525L26.3899 75.3389H27.4588ZM31.6581 82.7324C31.097 82.73 30.6176 82.582 30.2199 82.2885C29.8222 81.9949 29.5179 81.5676 29.3072 81.0065C29.0965 80.4454 28.9912 79.7695 28.9912 78.9788C28.9912 78.1905 29.0965 77.5169 29.3072 76.9582C29.5203 76.3995 29.8257 75.9734 30.2234 75.6798C30.6235 75.3863 31.1018 75.2395 31.6581 75.2395C32.2144 75.2395 32.6915 75.3874 33.0892 75.6834C33.4869 75.9769 33.7911 76.4031 34.0018 76.9618C34.2149 77.5181 34.3214 78.1905 34.3214 78.9788C34.3214 79.7719 34.2161 80.449 34.0054 81.0101C33.7947 81.5688 33.4905 81.9961 33.0928 82.292C32.695 82.5856 32.2168 82.7324 31.6581 82.7324ZM31.6581 81.7842C32.1505 81.7842 32.5352 81.5439 32.8122 81.0633C33.0916 80.5828 33.2312 79.8879 33.2312 78.9788C33.2312 78.3751 33.1673 77.8649 33.0395 77.4483C32.914 77.0292 32.7329 76.712 32.4962 76.4966C32.2618 76.2788 31.9824 76.1699 31.6581 76.1699C31.168 76.1699 30.7833 76.4113 30.504 76.8943C30.2246 77.3773 30.0838 78.0721 30.0814 78.9788C30.0814 79.5849 30.1441 80.0974 30.2696 80.5165C30.3974 80.9331 30.5786 81.2492 30.8129 81.4646C31.0473 81.6777 31.329 81.7842 31.6581 81.7842ZM37.8132 82.7324C37.2521 82.73 36.7727 82.582 36.375 82.2885C35.9772 81.9949 35.673 81.5676 35.4623 81.0065C35.2516 80.4454 35.1463 79.7695 35.1463 78.9788C35.1463 78.1905 35.2516 77.5169 35.4623 76.9582C35.6754 76.3995 35.9808 75.9734 36.3785 75.6798C36.7786 75.3863 37.2568 75.2395 37.8132 75.2395C38.3695 75.2395 38.8466 75.3874 39.2443 75.6834C39.642 75.9769 39.9462 76.4031 40.1569 76.9618C40.37 77.5181 40.4765 78.1905 40.4765 78.9788C40.4765 79.7719 40.3712 80.449 40.1605 81.0101C39.9498 81.5688 39.6456 81.9961 39.2478 82.292C38.8501 82.5856 38.3719 82.7324 37.8132 82.7324ZM37.8132 81.7842C38.3056 81.7842 38.6903 81.5439 38.9673 81.0633C39.2466 80.5828 39.3863 79.8879 39.3863 78.9788C39.3863 78.3751 39.3224 77.8649 39.1946 77.4483C39.0691 77.0292 38.888 76.712 38.6512 76.4966C38.4169 76.2788 38.1375 76.1699 37.8132 76.1699C37.3231 76.1699 36.9384 76.4113 36.6591 76.8943C36.3797 77.3773 36.2388 78.0721 36.2365 78.9788C36.2365 79.5849 36.2992 80.0974 36.4247 80.5165C36.5525 80.9331 36.7336 81.2492 36.968 81.4646C37.2024 81.6777 37.4841 81.7842 37.8132 81.7842ZM42.4271 80.7615L42.42 79.4653H42.6046L44.7779 77.1571H46.0492L43.5705 79.7849H43.4036L42.4271 80.7615ZM41.4505 82.6116V75.3389H42.5123V82.6116H41.4505ZM44.8951 82.6116L42.942 80.0193L43.6735 79.2771L46.1984 82.6116H44.8951Z" fill="#7D7D7D"/>
<path d="M67 80L486.5 80" stroke="#F1F1F1"/>
<path d="M27.1001 113.211C26.6551 113.211 26.255 113.126 25.8999 112.955C25.5471 112.783 25.2654 112.546 25.0547 112.245C24.844 111.944 24.7315 111.601 24.7173 111.215H25.7827C25.8087 111.528 25.9472 111.785 26.1982 111.986C26.4491 112.187 26.7498 112.288 27.1001 112.288C27.3795 112.288 27.6269 112.224 27.8423 112.096C28.0601 111.966 28.2306 111.787 28.3537 111.56C28.4792 111.333 28.5419 111.073 28.5419 110.782C28.5419 110.486 28.478 110.222 28.3501 109.99C28.2223 109.758 28.0459 109.576 27.821 109.443C27.5985 109.311 27.3428 109.243 27.054 109.241C26.8338 109.241 26.6125 109.279 26.3899 109.355C26.1674 109.43 25.9875 109.53 25.8501 109.653L24.8452 109.504L25.2536 105.839H29.2521V106.78H26.1662L25.9354 108.815H25.978C26.12 108.677 26.3082 108.563 26.5426 108.47C26.7794 108.378 27.0327 108.332 27.3026 108.332C27.7453 108.332 28.1394 108.437 28.4851 108.648C28.8331 108.859 29.1065 109.146 29.3054 109.511C29.5066 109.873 29.6061 110.29 29.6037 110.761C29.6061 111.232 29.4995 111.652 29.2841 112.021C29.071 112.391 28.7751 112.682 28.3963 112.895C28.0199 113.106 27.5878 113.211 27.1001 113.211ZM33.1327 113.232C32.5716 113.23 32.0922 113.082 31.6945 112.788C31.2968 112.495 30.9926 112.068 30.7819 111.507C30.5712 110.945 30.4658 110.27 30.4658 109.479C30.4658 108.69 30.5712 108.017 30.7819 107.458C30.9949 106.9 31.3003 106.473 31.698 106.18C32.0981 105.886 32.5764 105.739 33.1327 105.739C33.6891 105.739 34.1661 105.887 34.5638 106.183C34.9615 106.477 35.2658 106.903 35.4765 107.462C35.6895 108.018 35.7961 108.69 35.7961 109.479C35.7961 110.272 35.6907 110.949 35.48 111.51C35.2693 112.069 34.9651 112.496 34.5674 112.792C34.1696 113.086 33.6914 113.232 33.1327 113.232ZM33.1327 112.284C33.6251 112.284 34.0098 112.044 34.2868 111.563C34.5662 111.083 34.7059 110.388 34.7059 109.479C34.7059 108.875 34.6419 108.365 34.5141 107.948C34.3886 107.529 34.2075 107.212 33.9708 106.997C33.7364 106.779 33.457 106.67 33.1327 106.67C32.6426 106.67 32.2579 106.911 31.9786 107.394C31.6992 107.877 31.5584 108.572 31.556 109.479C31.556 110.085 31.6187 110.597 31.7442 111.016C31.8721 111.433 32.0532 111.749 32.2875 111.965C32.5219 112.178 32.8036 112.284 33.1327 112.284ZM37.7466 111.261L37.7395 109.965H37.9241L40.0974 107.657H41.3687L38.8901 110.285H38.7232L37.7466 111.261ZM36.77 113.112V105.839H37.8318V113.112H36.77ZM40.2146 113.112L38.2615 110.519L38.993 109.777L41.5179 113.112H40.2146Z" fill="#7D7D7D"/>
<path d="M67 110.25L486.5 110.25" stroke="#F1F1F1"/>
<path d="M24.6996 143.612V142.816L27.1605 140.266C27.4233 139.989 27.6399 139.747 27.8104 139.538C27.9832 139.328 28.1122 139.128 28.1974 138.938C28.2827 138.749 28.3253 138.548 28.3253 138.335C28.3253 138.093 28.2685 137.885 28.1548 137.71C28.0412 137.532 27.8861 137.396 27.6896 137.301C27.4931 137.204 27.2718 137.156 27.0256 137.156C26.7652 137.156 26.5379 137.209 26.3438 137.315C26.1496 137.422 26.0005 137.572 25.8963 137.766C25.7921 137.961 25.7401 138.188 25.7401 138.448H24.6925C24.6925 138.006 24.7943 137.618 24.9979 137.287C25.2015 136.956 25.4808 136.699 25.8359 136.516C26.1911 136.332 26.5947 136.239 27.0469 136.239C27.5038 136.239 27.9063 136.331 28.2543 136.513C28.6046 136.693 28.8781 136.939 29.0746 137.252C29.2711 137.562 29.3693 137.912 29.3693 138.303C29.3693 138.573 29.3184 138.837 29.2166 139.095C29.1172 139.353 28.9432 139.64 28.6946 139.958C28.446 140.272 28.1004 140.655 27.6577 141.105L26.2124 142.617V142.671H29.4865V143.612H24.6996ZM33.0643 143.732C32.5033 143.73 32.0239 143.582 31.6261 143.288C31.2284 142.995 30.9242 142.568 30.7135 142.007C30.5028 141.445 30.3974 140.77 30.3974 139.979C30.3974 139.19 30.5028 138.517 30.7135 137.958C30.9266 137.4 31.232 136.973 31.6297 136.68C32.0298 136.386 32.508 136.239 33.0643 136.239C33.6207 136.239 34.0977 136.387 34.4955 136.683C34.8932 136.977 35.1974 137.403 35.4081 137.962C35.6212 138.518 35.7277 139.19 35.7277 139.979C35.7277 140.772 35.6223 141.449 35.4116 142.01C35.2009 142.569 34.8967 142.996 34.499 143.292C34.1013 143.586 33.6231 143.732 33.0643 143.732ZM33.0643 142.784C33.5568 142.784 33.9415 142.544 34.2185 142.063C34.4978 141.583 34.6375 140.888 34.6375 139.979C34.6375 139.375 34.5736 138.865 34.4457 138.448C34.3203 138.029 34.1392 137.712 33.9024 137.497C33.668 137.279 33.3887 137.17 33.0643 137.17C32.5743 137.17 32.1896 137.411 31.9102 137.894C31.6309 138.377 31.49 139.072 31.4876 139.979C31.4876 140.585 31.5504 141.097 31.6759 141.516C31.8037 141.933 31.9848 142.249 32.2192 142.465C32.4536 142.678 32.7353 142.784 33.0643 142.784ZM37.6782 141.761L37.6711 140.465H37.8558L40.0291 138.157H41.3004L38.8217 140.785H38.6548L37.6782 141.761ZM36.7017 143.612V136.339H37.7635V143.612H36.7017ZM40.1463 143.612L38.1931 141.019L38.9247 140.277L41.4495 143.612H40.1463Z" fill="#7D7D7D"/>
<path d="M67 141.5H486.5" stroke="#F1F1F1"/>
<path d="M27.4588 166.839V174.112H26.358V167.94H26.3153L24.5753 169.076V168.025L26.3899 166.839H27.4588ZM31.6581 174.232C31.097 174.23 30.6176 174.082 30.2199 173.788C29.8222 173.495 29.5179 173.068 29.3072 172.507C29.0965 171.945 28.9912 171.27 28.9912 170.479C28.9912 169.69 29.0965 169.017 29.3072 168.458C29.5203 167.9 29.8257 167.473 30.2234 167.18C30.6235 166.886 31.1018 166.739 31.6581 166.739C32.2144 166.739 32.6915 166.887 33.0892 167.183C33.4869 167.477 33.7911 167.903 34.0018 168.462C34.2149 169.018 34.3214 169.69 34.3214 170.479C34.3214 171.272 34.2161 171.949 34.0054 172.51C33.7947 173.069 33.4905 173.496 33.0928 173.792C32.695 174.086 32.2168 174.232 31.6581 174.232ZM31.6581 173.284C32.1505 173.284 32.5352 173.044 32.8122 172.563C33.0916 172.083 33.2312 171.388 33.2312 170.479C33.2312 169.875 33.1673 169.365 33.0395 168.948C32.914 168.529 32.7329 168.212 32.4962 167.997C32.2618 167.779 31.9824 167.67 31.6581 167.67C31.168 167.67 30.7833 167.911 30.504 168.394C30.2246 168.877 30.0838 169.572 30.0814 170.479C30.0814 171.085 30.1441 171.597 30.2696 172.016C30.3974 172.433 30.5786 172.749 30.8129 172.965C31.0473 173.178 31.329 173.284 31.6581 173.284ZM36.272 172.261L36.2649 170.965H36.4495L38.6228 168.657H39.8941L37.4154 171.285H37.2485L36.272 172.261ZM35.2954 174.112V166.839H36.3572V174.112H35.2954ZM38.74 174.112L36.7869 171.519L37.5184 170.777L40.0433 174.112H38.74Z" fill="#7D7D7D"/>
<path d="M67 171.75H486.5" stroke="#F1F1F1"/>
<path d="M27.2315 204.732C26.6705 204.73 26.1911 204.582 25.7933 204.288C25.3956 203.995 25.0914 203.568 24.8807 203.007C24.67 202.445 24.5646 201.77 24.5646 200.979C24.5646 200.19 24.67 199.517 24.8807 198.958C25.0938 198.4 25.3991 197.973 25.7969 197.68C26.197 197.386 26.6752 197.239 27.2315 197.239C27.7879 197.239 28.2649 197.387 28.6626 197.683C29.0604 197.977 29.3646 198.403 29.5753 198.962C29.7884 199.518 29.8949 200.19 29.8949 200.979C29.8949 201.772 29.7895 202.449 29.5788 203.01C29.3681 203.569 29.0639 203.996 28.6662 204.292C28.2685 204.586 27.7902 204.732 27.2315 204.732ZM27.2315 203.784C27.724 203.784 28.1087 203.544 28.3857 203.063C28.665 202.583 28.8047 201.888 28.8047 200.979C28.8047 200.375 28.7408 199.865 28.6129 199.448C28.4875 199.029 28.3063 198.712 28.0696 198.497C27.8352 198.279 27.5559 198.17 27.2315 198.17C26.7415 198.17 26.3568 198.411 26.0774 198.894C25.7981 199.377 25.6572 200.072 25.6548 200.979C25.6548 201.585 25.7176 202.097 25.843 202.516C25.9709 202.933 26.152 203.249 26.3864 203.465C26.6207 203.678 26.9025 203.784 27.2315 203.784Z" fill="#7D7D7D"/>
<path d="M67 202L487.13 202" stroke="#F1F1F1"/>
<mask id="mask0_33_406" style="mask-type:alpha" maskUnits="userSpaceOnUse" x="81" y="73" width="405" height="128">
<rect x="81" y="73" width="405" height="128" fill="#D9D9D9"/>
</mask>
<g mask="url(#mask0_33_406)">
<path d="M194.5 125.5L137 171L80 181.5V202L486.5 202.5V80L427.5 105L369 158.508L310.5 178.008L252.5 105L194.5 125.5Z" fill="url(#paint0_linear_33_406)" stroke="#25CD25" stroke-dasharray="2 2"/>
</g>
<defs>
<linearGradient id="paint0_linear_33_406" x1="283.25" y1="80" x2="283.25" y2="202" gradientUnits="userSpaceOnUse">
<stop stop-color="#25CD25" stop-opacity="0.4"/>
<stop offset="1" stop-color="#25CD25" stop-opacity="0"/>
</linearGradient>
</defs>
</svg>
