<svg width="179" height="49" viewBox="0 0 179 49" fill="none" xmlns="http://www.w3.org/2000/svg">
<rect y="0.611633" width="179" height="48" rx="16" fill="#FFF7E8"/>
<path d="M27 24.6116H21M24 21.6116V27.6116M24 15.6116C31.2 15.6116 33 17.4116 33 24.6116C33 31.8116 31.2 33.6116 24 33.6116C16.8 33.6116 15 31.8116 15 24.6116C15 17.4116 16.8 15.6116 24 15.6116Z" stroke="#FFA500" stroke-width="1.25" stroke-linecap="round" stroke-linejoin="round"/>
<path d="M49.1307 19.9298H50.3636V27.2082C50.3636 27.8578 50.2443 28.4097 50.0057 28.8638C49.767 29.3178 49.4306 29.6625 48.9964 29.8979C48.5623 30.1332 48.0502 30.2508 47.4602 30.2508C46.9034 30.2508 46.4079 30.1497 45.9737 29.9476C45.5395 29.7421 45.1982 29.4504 44.9496 29.0726C44.701 28.6947 44.5767 28.2456 44.5767 27.7253H45.7898C45.7898 28.0136 45.861 28.2655 46.0036 28.481C46.1494 28.6931 46.3482 28.8588 46.6001 28.9781C46.852 29.0974 47.1387 29.1571 47.4602 29.1571C47.8149 29.1571 48.1165 29.0825 48.3651 28.9334C48.6136 28.7842 48.8026 28.5655 48.9318 28.2771C49.0644 27.9854 49.1307 27.6292 49.1307 27.2082V19.9298ZM55.4777 30.2707C54.7883 30.2707 54.1834 30.1067 53.6631 29.7785C53.146 29.4504 52.7417 28.9914 52.45 28.4014C52.1616 27.8114 52.0175 27.122 52.0175 26.3332C52.0175 25.5378 52.1616 24.8434 52.45 24.2501C52.7417 23.6569 53.146 23.1962 53.6631 22.868C54.1834 22.5399 54.7883 22.3758 55.4777 22.3758C56.1671 22.3758 56.7703 22.5399 57.2874 22.868C57.8077 23.1962 58.2121 23.6569 58.5004 24.2501C58.7921 24.8434 58.9379 25.5378 58.9379 26.3332C58.9379 27.122 58.7921 27.8114 58.5004 28.4014C58.2121 28.9914 57.8077 29.4504 57.2874 29.7785C56.7703 30.1067 56.1671 30.2707 55.4777 30.2707ZM55.4777 29.2167C56.0014 29.2167 56.4322 29.0825 56.7703 28.814C57.1084 28.5456 57.3586 28.1926 57.521 27.7551C57.6834 27.3176 57.7646 26.8436 57.7646 26.3332C57.7646 25.8228 57.6834 25.3472 57.521 24.9064C57.3586 24.4656 57.1084 24.1093 56.7703 23.8375C56.4322 23.5657 56.0014 23.4298 55.4777 23.4298C54.954 23.4298 54.5232 23.5657 54.1851 23.8375C53.847 24.1093 53.5968 24.4656 53.4344 24.9064C53.272 25.3472 53.1908 25.8228 53.1908 26.3332C53.1908 26.8436 53.272 27.3176 53.4344 27.7551C53.5968 28.1926 53.847 28.5456 54.1851 28.814C54.5232 29.0825 54.954 29.2167 55.4777 29.2167ZM62.6761 30.2906C62.1922 30.2906 61.753 30.1995 61.3586 30.0172C60.9642 29.8316 60.651 29.5648 60.419 29.2167C60.187 28.8654 60.071 28.4412 60.071 27.944C60.071 27.5065 60.1572 27.1519 60.3295 26.8801C60.5019 26.605 60.7322 26.3896 61.0206 26.2338C61.3089 26.078 61.6271 25.962 61.9751 25.8858C62.3264 25.8062 62.6794 25.7433 63.0341 25.6969C63.4981 25.6372 63.8743 25.5925 64.1626 25.5626C64.4543 25.5295 64.6664 25.4748 64.799 25.3986C64.9349 25.3223 65.0028 25.1898 65.0028 25.0008V24.9611C65.0028 24.4705 64.8686 24.0894 64.6001 23.8176C64.335 23.5458 63.9323 23.4099 63.392 23.4099C62.8319 23.4099 62.3927 23.5326 62.0745 23.7778C61.7564 24.0231 61.5326 24.2849 61.4034 24.5633L60.2897 24.1656C60.4886 23.7016 60.7538 23.3403 61.0852 23.0818C61.4199 22.82 61.7845 22.6377 62.1789 22.5349C62.5767 22.4289 62.9678 22.3758 63.3522 22.3758C63.5975 22.3758 63.8792 22.4057 64.1974 22.4653C64.5189 22.5217 64.8288 22.6393 65.1271 22.8183C65.4287 22.9973 65.6789 23.2674 65.8778 23.6287C66.0767 23.9899 66.1761 24.4738 66.1761 25.0804V30.1116H65.0028V29.0775H64.9431C64.8636 29.2433 64.731 29.4206 64.5454 29.6095C64.3598 29.7984 64.1129 29.9592 63.8047 30.0917C63.4964 30.2243 63.1202 30.2906 62.6761 30.2906ZM62.8551 29.2366C63.3191 29.2366 63.7102 29.1455 64.0284 28.9632C64.3499 28.7809 64.5918 28.5456 64.7542 28.2572C64.9199 27.9689 65.0028 27.6656 65.0028 27.3474V26.2736C64.9531 26.3332 64.8437 26.3879 64.6747 26.4376C64.509 26.484 64.3167 26.5255 64.098 26.5619C63.8825 26.5951 63.6721 26.6249 63.4666 26.6514C63.2644 26.6746 63.1003 26.6945 62.9744 26.7111C62.6695 26.7508 62.3844 26.8155 62.1193 26.905C61.8574 26.9911 61.6453 27.122 61.4829 27.2977C61.3238 27.4701 61.2443 27.7054 61.2443 28.0037C61.2443 28.4113 61.3951 28.7196 61.6967 28.9284C62.0016 29.1339 62.3877 29.2366 62.8551 29.2366ZM69.1909 25.5179V30.1116H68.0176V22.4753H69.1511V23.6685H69.2506C69.4295 23.2807 69.7013 22.9691 70.0659 22.7338C70.4305 22.4952 70.9011 22.3758 71.4778 22.3758C71.9949 22.3758 72.4473 22.4819 72.8351 22.694C73.2229 22.9028 73.5245 23.221 73.7399 23.6486C73.9554 24.0728 74.0631 24.6097 74.0631 25.2594V30.1116H72.8898V25.3389C72.8898 24.739 72.734 24.2717 72.4224 23.9369C72.1109 23.5988 71.6833 23.4298 71.1398 23.4298C70.7652 23.4298 70.4305 23.511 70.1355 23.6734C69.8438 23.8358 69.6135 24.0728 69.4445 24.3844C69.2754 24.6959 69.1909 25.0738 69.1909 25.5179ZM78.1542 30.2906C77.6703 30.2906 77.2312 30.1995 76.8368 30.0172C76.4423 29.8316 76.1291 29.5648 75.8971 29.2167C75.6651 28.8654 75.5491 28.4412 75.5491 27.944C75.5491 27.5065 75.6353 27.1519 75.8076 26.8801C75.98 26.605 76.2103 26.3896 76.4987 26.2338C76.787 26.078 77.1052 25.962 77.4532 25.8858C77.8046 25.8062 78.1575 25.7433 78.5122 25.6969C78.9762 25.6372 79.3524 25.5925 79.6407 25.5626C79.9324 25.5295 80.1445 25.4748 80.2771 25.3986C80.413 25.3223 80.4809 25.1898 80.4809 25.0008V24.9611C80.4809 24.4705 80.3467 24.0894 80.0782 23.8176C79.8131 23.5458 79.4104 23.4099 78.8701 23.4099C78.31 23.4099 77.8708 23.5326 77.5527 23.7778C77.2345 24.0231 77.0108 24.2849 76.8815 24.5633L75.7679 24.1656C75.9667 23.7016 76.2319 23.3403 76.5633 23.0818C76.8981 22.82 77.2627 22.6377 77.6571 22.5349C78.0548 22.4289 78.4459 22.3758 78.8304 22.3758C79.0756 22.3758 79.3574 22.4057 79.6755 22.4653C79.997 22.5217 80.3069 22.6393 80.6052 22.8183C80.9068 22.9973 81.1571 23.2674 81.3559 23.6287C81.5548 23.9899 81.6542 24.4738 81.6542 25.0804V30.1116H80.4809V29.0775H80.4213C80.3417 29.2433 80.2091 29.4206 80.0235 29.6095C79.8379 29.7984 79.591 29.9592 79.2828 30.0917C78.9745 30.2243 78.5984 30.2906 78.1542 30.2906ZM78.3332 29.2366C78.7972 29.2366 79.1883 29.1455 79.5065 28.9632C79.828 28.7809 80.0699 28.5456 80.2324 28.2572C80.3981 27.9689 80.4809 27.6656 80.4809 27.3474V26.2736C80.4312 26.3332 80.3218 26.3879 80.1528 26.4376C79.9871 26.484 79.7949 26.5255 79.5761 26.5619C79.3607 26.5951 79.1502 26.6249 78.9447 26.6514C78.7425 26.6746 78.5785 26.6945 78.4525 26.7111C78.1476 26.7508 77.8626 26.8155 77.5974 26.905C77.3356 26.9911 77.1234 27.122 76.961 27.2977C76.802 27.4701 76.7224 27.7054 76.7224 28.0037C76.7224 28.4113 76.8732 28.7196 77.1748 28.9284C77.4797 29.1339 77.8659 29.2366 78.3332 29.2366ZM87.2923 19.9298H88.7639L92.2241 28.3815H92.3435L95.8037 19.9298H97.2753V30.1116H96.1219V22.3758H96.0224L92.8406 30.1116H91.727L88.5452 22.3758H88.4457V30.1116H87.2923V19.9298ZM99.2883 30.1116V22.4753H100.462V30.1116H99.2883ZM99.8849 21.2025C99.6562 21.2025 99.459 21.1247 99.2933 20.9689C99.1309 20.8131 99.0497 20.6258 99.0497 20.4071C99.0497 20.1883 99.1309 20.0011 99.2933 19.8453C99.459 19.6895 99.6562 19.6116 99.8849 19.6116C100.114 19.6116 100.309 19.6895 100.472 19.8453C100.637 20.0011 100.72 20.1883 100.72 20.4071C100.72 20.6258 100.637 20.8131 100.472 20.9689C100.309 21.1247 100.114 21.2025 99.8849 21.2025ZM103.484 25.5179V30.1116H102.311V22.4753H103.444V23.6685H103.544C103.723 23.2807 103.994 22.9691 104.359 22.7338C104.723 22.4952 105.194 22.3758 105.771 22.3758C106.288 22.3758 106.74 22.4819 107.128 22.694C107.516 22.9028 107.817 23.221 108.033 23.6486C108.248 24.0728 108.356 24.6097 108.356 25.2594V30.1116H107.183V25.3389C107.183 24.739 107.027 24.2717 106.715 23.9369C106.404 23.5988 105.976 23.4298 105.433 23.4298C105.058 23.4298 104.723 23.511 104.428 23.6734C104.137 23.8358 103.906 24.0728 103.737 24.3844C103.568 24.6959 103.484 25.0738 103.484 25.5179ZM110.2 30.1116V22.4753H111.373V30.1116H110.2ZM110.797 21.2025C110.568 21.2025 110.371 21.1247 110.205 20.9689C110.043 20.8131 109.961 20.6258 109.961 20.4071C109.961 20.1883 110.043 20.0011 110.205 19.8453C110.371 19.6895 110.568 19.6116 110.797 19.6116C111.025 19.6116 111.221 19.6895 111.383 19.8453C111.549 20.0011 111.632 20.1883 111.632 20.4071C111.632 20.6258 111.549 20.8131 111.383 20.9689C111.221 21.1247 111.025 21.2025 110.797 21.2025ZM117.597 25.1997V26.2935H113.143V25.1997H117.597ZM119.362 30.1116V22.4753H120.495V23.6685H120.595C120.754 23.2608 121.011 22.9443 121.365 22.7189C121.72 22.4902 122.146 22.3758 122.643 22.3758C123.147 22.3758 123.566 22.4902 123.901 22.7189C124.239 22.9443 124.502 23.2608 124.691 23.6685H124.771C124.966 23.274 125.26 22.9608 125.651 22.7288C126.042 22.4935 126.511 22.3758 127.058 22.3758C127.741 22.3758 128.299 22.5896 128.733 23.0172C129.167 23.4414 129.384 24.1026 129.384 25.0008V30.1116H128.211V25.0008C128.211 24.4374 128.057 24.0347 127.749 23.7927C127.441 23.5508 127.078 23.4298 126.66 23.4298C126.123 23.4298 125.707 23.5922 125.412 23.917C125.117 24.2385 124.97 24.6462 124.97 25.14V30.1116H123.777V24.8815C123.777 24.4473 123.636 24.0977 123.354 23.8325C123.072 23.564 122.709 23.4298 122.265 23.4298C121.96 23.4298 121.675 23.511 121.41 23.6734C121.148 23.8358 120.936 24.0612 120.774 24.3496C120.615 24.6346 120.535 24.9644 120.535 25.3389V30.1116H119.362ZM133.477 30.2906C132.993 30.2906 132.554 30.1995 132.159 30.0172C131.765 29.8316 131.452 29.5648 131.22 29.2167C130.988 28.8654 130.872 28.4412 130.872 27.944C130.872 27.5065 130.958 27.1519 131.13 26.8801C131.303 26.605 131.533 26.3896 131.821 26.2338C132.11 26.078 132.428 25.962 132.776 25.8858C133.127 25.8062 133.48 25.7433 133.835 25.6969C134.299 25.6372 134.675 25.5925 134.963 25.5626C135.255 25.5295 135.467 25.4748 135.6 25.3986C135.736 25.3223 135.804 25.1898 135.804 25.0008V24.9611C135.804 24.4705 135.669 24.0894 135.401 23.8176C135.136 23.5458 134.733 23.4099 134.193 23.4099C133.633 23.4099 133.194 23.5326 132.875 23.7778C132.557 24.0231 132.333 24.2849 132.204 24.5633L131.091 24.1656C131.289 23.7016 131.555 23.3403 131.886 23.0818C132.221 22.82 132.585 22.6377 132.98 22.5349C133.377 22.4289 133.769 22.3758 134.153 22.3758C134.398 22.3758 134.68 22.4057 134.998 22.4653C135.32 22.5217 135.63 22.6393 135.928 22.8183C136.229 22.9973 136.48 23.2674 136.679 23.6287C136.877 23.9899 136.977 24.4738 136.977 25.0804V30.1116H135.804V29.0775H135.744C135.664 29.2433 135.532 29.4206 135.346 29.6095C135.161 29.7984 134.914 29.9592 134.605 30.0917C134.297 30.2243 133.921 30.2906 133.477 30.2906ZM133.656 29.2366C134.12 29.2366 134.511 29.1455 134.829 28.9632C135.151 28.7809 135.393 28.5456 135.555 28.2572C135.721 27.9689 135.804 27.6656 135.804 27.3474V26.2736C135.754 26.3332 135.644 26.3879 135.475 26.4376C135.31 26.484 135.118 26.5255 134.899 26.5619C134.683 26.5951 134.473 26.6249 134.267 26.6514C134.065 26.6746 133.901 26.6945 133.775 26.7111C133.47 26.7508 133.185 26.8155 132.92 26.905C132.658 26.9911 132.446 27.122 132.284 27.2977C132.125 27.4701 132.045 27.7054 132.045 28.0037C132.045 28.4113 132.196 28.7196 132.497 28.9284C132.802 29.1339 133.189 29.2366 133.656 29.2366ZM138.818 30.1116V22.4753H139.952V23.6287H140.031C140.171 23.2508 140.423 22.9443 140.787 22.7089C141.152 22.4736 141.563 22.356 142.02 22.356C142.106 22.356 142.214 22.3576 142.343 22.3609C142.473 22.3642 142.57 22.3692 142.637 22.3758V23.569C142.597 23.5591 142.506 23.5442 142.363 23.5243C142.224 23.5011 142.076 23.4895 141.921 23.4895C141.549 23.4895 141.218 23.5674 140.926 23.7231C140.638 23.8756 140.409 24.0877 140.24 24.3595C140.075 24.628 139.992 24.9345 139.992 25.2792V30.1116H138.818ZM144.821 27.3275L144.801 25.8758H145.04L148.381 22.4753H149.832L146.273 26.0747H146.173L144.821 27.3275ZM143.727 30.1116V19.9298H144.901V30.1116H143.727ZM148.58 30.1116L145.597 26.3332L146.432 25.5179L150.071 30.1116H148.58ZM153.93 30.2707C153.194 30.2707 152.559 30.1083 152.026 29.7835C151.495 29.4554 151.086 28.998 150.798 28.4113C150.513 27.8214 150.37 27.1353 150.37 26.3531C150.37 25.5709 150.513 24.8815 150.798 24.2849C151.086 23.685 151.487 23.2177 152.001 22.8829C152.518 22.5449 153.121 22.3758 153.811 22.3758C154.208 22.3758 154.601 22.4421 154.989 22.5747C155.377 22.7073 155.73 22.9227 156.048 23.221C156.366 23.516 156.619 23.9071 156.808 24.3943C156.997 24.8815 157.092 25.4814 157.092 26.194V26.6912H151.205V25.677H155.899C155.899 25.2461 155.812 24.8616 155.64 24.5236C155.471 24.1855 155.229 23.9187 154.914 23.7231C154.603 23.5276 154.235 23.4298 153.811 23.4298C153.343 23.4298 152.939 23.5458 152.597 23.7778C152.259 24.0065 151.999 24.3048 151.817 24.6727C151.635 25.0406 151.544 25.435 151.544 25.856V26.5321C151.544 27.1088 151.643 27.5977 151.842 27.9987C152.044 28.3964 152.324 28.6997 152.682 28.9085C153.04 29.114 153.456 29.2167 153.93 29.2167C154.238 29.2167 154.517 29.1737 154.765 29.0875C155.017 28.998 155.234 28.8654 155.416 28.6898C155.599 28.5108 155.74 28.2887 155.839 28.0236L156.972 28.3417C156.853 28.7262 156.653 29.0643 156.371 29.356C156.089 29.6443 155.741 29.8697 155.327 30.0321C154.913 30.1912 154.447 30.2707 153.93 30.2707ZM161.898 22.4753V23.4696H157.94V22.4753H161.898ZM159.094 20.6457H160.267V27.9241C160.267 28.2556 160.315 28.5042 160.411 28.6699C160.511 28.8323 160.636 28.9417 160.789 28.998C160.945 29.051 161.109 29.0775 161.281 29.0775C161.41 29.0775 161.516 29.0709 161.599 29.0577C161.682 29.0411 161.748 29.0278 161.798 29.0179L162.037 30.0719C161.957 30.1017 161.846 30.1315 161.704 30.1613C161.561 30.1945 161.381 30.2111 161.162 30.2111C160.83 30.2111 160.506 30.1398 160.187 29.9973C159.873 29.8548 159.611 29.6377 159.402 29.346C159.196 29.0543 159.094 28.6864 159.094 28.2423V20.6457Z" fill="#734A00"/>
</svg>
