<svg width="157" height="49" viewBox="0 0 157 49" fill="none" xmlns="http://www.w3.org/2000/svg">
<rect y="0.611633" width="157" height="48" rx="16" fill="#FFF7E8"/>
<path d="M27 24.6116H21M24 21.6116V27.6116M24 15.6116C31.2 15.6116 33 17.4116 33 24.6116C33 31.8116 31.2 33.6116 24 33.6116C16.8 33.6116 15 31.8116 15 24.6116C15 17.4116 16.8 15.6116 24 15.6116Z" stroke="#FFA500" stroke-width="1.25" stroke-linecap="round" stroke-linejoin="round"/>
<path d="M45.233 19.9298H46.7045L50.1648 28.3815H50.2841L53.7443 19.9298H55.2159V30.1116H54.0625V22.3758H53.9631L50.7812 30.1116H49.6676L46.4858 22.3758H46.3864V30.1116H45.233V19.9298ZM59.4761 30.2906C58.9922 30.2906 58.553 30.1995 58.1586 30.0172C57.7642 29.8316 57.451 29.5648 57.219 29.2167C56.987 28.8654 56.871 28.4412 56.871 27.944C56.871 27.5065 56.9572 27.1519 57.1295 26.8801C57.3019 26.605 57.5322 26.3896 57.8206 26.2338C58.1089 26.078 58.4271 25.962 58.7751 25.8858C59.1264 25.8062 59.4794 25.7433 59.8341 25.6969C60.2981 25.6372 60.6743 25.5925 60.9626 25.5626C61.2543 25.5295 61.4664 25.4748 61.599 25.3986C61.7349 25.3223 61.8028 25.1898 61.8028 25.0008V24.9611C61.8028 24.4705 61.6686 24.0894 61.4001 23.8176C61.135 23.5458 60.7323 23.4099 60.192 23.4099C59.6319 23.4099 59.1927 23.5326 58.8745 23.7778C58.5564 24.0231 58.3326 24.2849 58.2034 24.5633L57.0897 24.1656C57.2886 23.7016 57.5538 23.3403 57.8852 23.0818C58.2199 22.82 58.5845 22.6377 58.9789 22.5349C59.3767 22.4289 59.7678 22.3758 60.1522 22.3758C60.3975 22.3758 60.6792 22.4057 60.9974 22.4653C61.3189 22.5217 61.6288 22.6393 61.9271 22.8183C62.2287 22.9973 62.4789 23.2674 62.6778 23.6287C62.8767 23.9899 62.9761 24.4738 62.9761 25.0804V30.1116H61.8028V29.0775H61.7431C61.6636 29.2433 61.531 29.4206 61.3454 29.6095C61.1598 29.7984 60.9129 29.9592 60.6047 30.0917C60.2964 30.2243 59.9202 30.2906 59.4761 30.2906ZM59.6551 29.2366C60.1191 29.2366 60.5102 29.1455 60.8284 28.9632C61.1499 28.7809 61.3918 28.5456 61.5542 28.2572C61.7199 27.9689 61.8028 27.6656 61.8028 27.3474V26.2736C61.7531 26.3332 61.6437 26.3879 61.4747 26.4376C61.309 26.484 61.1167 26.5255 60.898 26.5619C60.6825 26.5951 60.4721 26.6249 60.2666 26.6514C60.0644 26.6746 59.9003 26.6945 59.7744 26.7111C59.4695 26.7508 59.1844 26.8155 58.9193 26.905C58.6574 26.9911 58.4453 27.122 58.2829 27.2977C58.1238 27.4701 58.0443 27.7054 58.0443 28.0037C58.0443 28.4113 58.1951 28.7196 58.4967 28.9284C58.8016 29.1339 59.1877 29.2366 59.6551 29.2366ZM64.8176 30.1116V22.4753H65.9511V23.6287H66.0307C66.1699 23.2508 66.4218 22.9443 66.7864 22.7089C67.1509 22.4736 67.5619 22.356 68.0193 22.356C68.1055 22.356 68.2132 22.3576 68.3425 22.3609C68.4717 22.3642 68.5695 22.3692 68.6358 22.3758V23.569C68.596 23.5591 68.5049 23.5442 68.3624 23.5243C68.2232 23.5011 68.0757 23.4895 67.9199 23.4895C67.5487 23.4895 67.2172 23.5674 66.9256 23.7231C66.6372 23.8756 66.4085 24.0877 66.2395 24.3595C66.0738 24.628 65.9909 24.9345 65.9909 25.2792V30.1116H64.8176ZM75.1357 24.1855L74.0817 24.4838C74.0154 24.3081 73.9176 24.1374 73.7884 23.9717C73.6624 23.8027 73.4901 23.6635 73.2713 23.5541C73.0526 23.4447 72.7725 23.39 72.4311 23.39C71.9638 23.39 71.5744 23.4978 71.2628 23.7132C70.9546 23.9253 70.8005 24.1954 70.8005 24.5236C70.8005 24.8152 70.9065 25.0456 71.1186 25.2146C71.3308 25.3837 71.6622 25.5245 72.113 25.6372L73.2465 25.9156C73.9292 26.0813 74.438 26.3349 74.7728 26.6763C75.1075 27.0143 75.2749 27.4502 75.2749 27.9838C75.2749 28.4213 75.1489 28.8124 74.8971 29.1571C74.6485 29.5018 74.3005 29.7736 73.853 29.9724C73.4056 30.1713 72.8852 30.2707 72.2919 30.2707C71.5131 30.2707 70.8684 30.1017 70.358 29.7636C69.8476 29.4256 69.5244 28.9317 69.3885 28.2821L70.5022 28.0037C70.6082 28.4147 70.8087 28.7229 71.1037 28.9284C71.402 29.1339 71.7915 29.2366 72.2721 29.2366C72.8189 29.2366 73.2531 29.1206 73.5746 28.8886C73.8994 28.6533 74.0618 28.3716 74.0618 28.0435C74.0618 27.7783 73.969 27.5562 73.7834 27.3773C73.5978 27.195 73.3128 27.0591 72.9283 26.9696L71.6556 26.6713C70.9562 26.5056 70.4425 26.2487 70.1144 25.9007C69.7896 25.5494 69.6272 25.1102 69.6272 24.5832C69.6272 24.1524 69.7481 23.7712 69.9901 23.4398C70.2354 23.1083 70.5685 22.8481 70.9894 22.6592C71.4136 22.4703 71.8942 22.3758 72.4311 22.3758C73.1868 22.3758 73.7801 22.5416 74.211 22.873C74.6452 23.2044 74.9534 23.6419 75.1357 24.1855ZM77.9143 25.5179V30.1116H76.7411V19.9298H77.9143V23.6685H78.0138C78.1928 23.274 78.4612 22.9608 78.8192 22.7288C79.1804 22.4935 79.661 22.3758 80.2609 22.3758C80.7813 22.3758 81.237 22.4802 81.6281 22.689C82.0192 22.8945 82.3225 23.2111 82.5379 23.6386C82.7567 24.0629 82.8661 24.6031 82.8661 25.2594V30.1116H81.6928V25.3389C81.6928 24.7324 81.5353 24.2634 81.2205 23.9319C80.9089 23.5972 80.4764 23.4298 79.9229 23.4298C79.5384 23.4298 79.1937 23.511 78.8888 23.6734C78.5872 23.8358 78.3485 24.0728 78.1729 24.3844C78.0005 24.6959 77.9143 25.0738 77.9143 25.5179ZM86.9597 30.2906C86.4758 30.2906 86.0366 30.1995 85.6422 30.0172C85.2478 29.8316 84.9346 29.5648 84.7026 29.2167C84.4706 28.8654 84.3546 28.4412 84.3546 27.944C84.3546 27.5065 84.4408 27.1519 84.6131 26.8801C84.7855 26.605 85.0158 26.3896 85.3042 26.2338C85.5925 26.078 85.9107 25.962 86.2587 25.8858C86.61 25.8062 86.963 25.7433 87.3176 25.6969C87.7817 25.6372 88.1578 25.5925 88.4462 25.5626C88.7379 25.5295 88.95 25.4748 89.0826 25.3986C89.2185 25.3223 89.2864 25.1898 89.2864 25.0008V24.9611C89.2864 24.4705 89.1522 24.0894 88.8837 23.8176C88.6185 23.5458 88.2159 23.4099 87.6756 23.4099C87.1155 23.4099 86.6763 23.5326 86.3581 23.7778C86.04 24.0231 85.8162 24.2849 85.687 24.5633L84.5733 24.1656C84.7722 23.7016 85.0373 23.3403 85.3688 23.0818C85.7035 22.82 86.0681 22.6377 86.4625 22.5349C86.8603 22.4289 87.2514 22.3758 87.6358 22.3758C87.8811 22.3758 88.1628 22.4057 88.481 22.4653C88.8025 22.5217 89.1124 22.6393 89.4107 22.8183C89.7123 22.9973 89.9625 23.2674 90.1614 23.6287C90.3603 23.9899 90.4597 24.4738 90.4597 25.0804V30.1116H89.2864V29.0775H89.2267C89.1472 29.2433 89.0146 29.4206 88.829 29.6095C88.6434 29.7984 88.3965 29.9592 88.0882 30.0917C87.78 30.2243 87.4038 30.2906 86.9597 30.2906ZM87.1387 29.2366C87.6027 29.2366 87.9938 29.1455 88.312 28.9632C88.6335 28.7809 88.8754 28.5456 89.0378 28.2572C89.2035 27.9689 89.2864 27.6656 89.2864 27.3474V26.2736C89.2367 26.3332 89.1273 26.3879 88.9583 26.4376C88.7926 26.484 88.6003 26.5255 88.3816 26.5619C88.1661 26.5951 87.9557 26.6249 87.7502 26.6514C87.548 26.6746 87.3839 26.6945 87.258 26.7111C86.9531 26.7508 86.668 26.8155 86.4029 26.905C86.141 26.9911 85.9289 27.122 85.7665 27.2977C85.6074 27.4701 85.5279 27.7054 85.5279 28.0037C85.5279 28.4113 85.6787 28.7196 85.9803 28.9284C86.2852 29.1339 86.6713 29.2366 87.1387 29.2366ZM93.4745 19.9298V30.1116H92.3012V19.9298H93.4745ZM96.4968 19.9298V30.1116H95.3235V19.9298H96.4968ZM99.3599 19.9298V23.4298H98.2662V19.9298H99.3599ZM106.558 24.1855L105.504 24.4838C105.438 24.3081 105.34 24.1374 105.211 23.9717C105.085 23.8027 104.913 23.6635 104.694 23.5541C104.475 23.4447 104.195 23.39 103.854 23.39C103.386 23.39 102.997 23.4978 102.685 23.7132C102.377 23.9253 102.223 24.1954 102.223 24.5236C102.223 24.8152 102.329 25.0456 102.541 25.2146C102.753 25.3837 103.085 25.5245 103.536 25.6372L104.669 25.9156C105.352 26.0813 105.861 26.3349 106.195 26.6763C106.53 27.0143 106.698 27.4502 106.698 27.9838C106.698 28.4213 106.572 28.8124 106.32 29.1571C106.071 29.5018 105.723 29.7736 105.276 29.9724C104.828 30.1713 104.308 30.2707 103.715 30.2707C102.936 30.2707 102.291 30.1017 101.781 29.7636C101.27 29.4256 100.947 28.9317 100.811 28.2821L101.925 28.0037C102.031 28.4147 102.231 28.7229 102.526 28.9284C102.825 29.1339 103.214 29.2366 103.695 29.2366C104.242 29.2366 104.676 29.1206 104.997 28.8886C105.322 28.6533 105.484 28.3716 105.484 28.0435C105.484 27.7783 105.392 27.5562 105.206 27.3773C105.02 27.195 104.735 27.0591 104.351 26.9696L103.078 26.6713C102.379 26.5056 101.865 26.2487 101.537 25.9007C101.212 25.5494 101.05 25.1102 101.05 24.5832C101.05 24.1524 101.171 23.7712 101.413 23.4398C101.658 23.1083 101.991 22.8481 102.412 22.6592C102.836 22.4703 103.317 22.3758 103.854 22.3758C104.609 22.3758 105.203 22.5416 105.634 22.873C106.068 23.2044 106.376 23.6419 106.558 24.1855ZM111.96 19.9298H113.432L116.892 28.3815H117.011L120.472 19.9298H121.943V30.1116H120.79V22.3758H120.69L117.509 30.1116H116.395L113.213 22.3758H113.114V30.1116H111.96V19.9298ZM124.115 30.1116V19.9298H125.348V24.981H125.468L130.042 19.9298H131.652L127.377 24.5236L131.652 30.1116H130.161L126.621 25.3787L125.348 26.8105V30.1116H124.115ZM132.391 21.0236V19.9298H140.028V21.0236H136.826V30.1116H135.593V21.0236H132.391Z" fill="#734A00"/>
</svg>
