<svg width="117" height="29" viewBox="0 0 117 29" fill="none" xmlns="http://www.w3.org/2000/svg">
<rect y="0.611633" width="117" height="48" rx="16" fill="#FFF7E8"/>
<path d="M27 24.6116H21M24 21.6116V27.6116M24 15.6116C31.2 15.6116 33 17.4116 33 24.6116C33 31.8116 31.2 33.6116 24 33.6116C16.8 33.6116 15 31.8116 15 24.6116C15 17.4116 16.8 15.6116 24 15.6116Z" stroke="#FFA500" stroke-width="1.25" stroke-linecap="round" stroke-linejoin="round"/>
<path d="M45.233 19.9298H46.7045L50.1648 28.3815H50.2841L53.7443 19.9298H55.2159V30.1116H54.0625V22.3758H53.9631L50.7812 30.1116H49.6676L46.4858 22.3758H46.3864V30.1116H45.233V19.9298ZM60.3312 30.2707C59.6418 30.2707 59.0369 30.1067 58.5166 29.7785C57.9995 29.4504 57.5952 28.9914 57.3035 28.4014C57.0152 27.8114 56.871 27.122 56.871 26.3332C56.871 25.5378 57.0152 24.8434 57.3035 24.2501C57.5952 23.6569 57.9995 23.1962 58.5166 22.868C59.0369 22.5399 59.6418 22.3758 60.3312 22.3758C61.0206 22.3758 61.6238 22.5399 62.1409 22.868C62.6612 23.1962 63.0656 23.6569 63.3539 24.2501C63.6456 24.8434 63.7914 25.5378 63.7914 26.3332C63.7914 27.122 63.6456 27.8114 63.3539 28.4014C63.0656 28.9914 62.6612 29.4504 62.1409 29.7785C61.6238 30.1067 61.0206 30.2707 60.3312 30.2707ZM60.3312 29.2167C60.8549 29.2167 61.2858 29.0825 61.6238 28.814C61.9619 28.5456 62.2121 28.1926 62.3745 27.7551C62.5369 27.3176 62.6181 26.8436 62.6181 26.3332C62.6181 25.8228 62.5369 25.3472 62.3745 24.9064C62.2121 24.4656 61.9619 24.1093 61.6238 23.8375C61.2858 23.5657 60.8549 23.4298 60.3312 23.4298C59.8075 23.4298 59.3767 23.5657 59.0386 23.8375C58.7005 24.1093 58.4503 24.4656 58.2879 24.9064C58.1255 25.3472 58.0443 25.8228 58.0443 26.3332C58.0443 26.8436 58.1255 27.3176 58.2879 27.7551C58.4503 28.1926 58.7005 28.5456 59.0386 28.814C59.3767 29.0825 59.8075 29.2167 60.3312 29.2167ZM65.2825 30.1116V22.4753H66.416V23.6287H66.4955C66.6347 23.2508 66.8866 22.9443 67.2512 22.7089C67.6158 22.4736 68.0268 22.356 68.4842 22.356C68.5703 22.356 68.6781 22.3576 68.8073 22.3609C68.9366 22.3642 69.0344 22.3692 69.1006 22.3758V23.569C69.0609 23.5591 68.9697 23.5442 68.8272 23.5243C68.688 23.5011 68.5405 23.4895 68.3847 23.4895C68.0135 23.4895 67.6821 23.5674 67.3904 23.7231C67.1021 23.8756 66.8734 24.0877 66.7043 24.3595C66.5386 24.628 66.4558 24.9345 66.4558 25.2792V30.1116H65.2825ZM73.1607 30.2707C72.4249 30.2707 71.7902 30.1083 71.2566 29.7835C70.7263 29.4554 70.317 28.998 70.0286 28.4113C69.7436 27.8214 69.6011 27.1353 69.6011 26.3531C69.6011 25.5709 69.7436 24.8815 70.0286 24.2849C70.317 23.685 70.718 23.2177 71.2317 22.8829C71.7488 22.5449 72.352 22.3758 73.0414 22.3758C73.4391 22.3758 73.8319 22.4421 74.2197 22.5747C74.6075 22.7073 74.9604 22.9227 75.2786 23.221C75.5968 23.516 75.8504 23.9071 76.0393 24.3943C76.2282 24.8815 76.3227 25.4814 76.3227 26.194V26.6912H70.4363V25.677H75.1295C75.1295 25.2461 75.0433 24.8616 74.871 24.5236C74.7019 24.1855 74.46 23.9187 74.1451 23.7231C73.8335 23.5276 73.4656 23.4298 73.0414 23.4298C72.5741 23.4298 72.1697 23.5458 71.8283 23.7778C71.4903 24.0065 71.2301 24.3048 71.0478 24.6727C70.8655 25.0406 70.7744 25.435 70.7744 25.856V26.5321C70.7744 27.1088 70.8738 27.5977 71.0727 27.9987C71.2748 28.3964 71.5549 28.6997 71.9129 28.9085C72.2708 29.114 72.6868 29.2167 73.1607 29.2167C73.469 29.2167 73.7474 29.1737 73.996 29.0875C74.2478 28.998 74.4649 28.8654 74.6472 28.6898C74.8295 28.5108 74.9704 28.2887 75.0698 28.0236L76.2033 28.3417C76.084 28.7262 75.8835 29.0643 75.6018 29.356C75.3201 29.6443 74.972 29.8697 74.5577 30.0321C74.1434 30.1912 73.6778 30.2707 73.1607 30.2707ZM78.9808 19.9298V30.1116H77.8075V19.9298H78.9808ZM82.003 19.9298V30.1116H80.8297V19.9298H82.003ZM86.9543 30.2707C86.2649 30.2707 85.66 30.1067 85.1396 29.7785C84.6226 29.4504 84.2182 28.9914 83.9266 28.4014C83.6382 27.8114 83.494 27.122 83.494 26.3332C83.494 25.5378 83.6382 24.8434 83.9266 24.2501C84.2182 23.6569 84.6226 23.1962 85.1396 22.868C85.66 22.5399 86.2649 22.3758 86.9543 22.3758C87.6437 22.3758 88.2469 22.5399 88.7639 22.868C89.2843 23.1962 89.6886 23.6569 89.977 24.2501C90.2687 24.8434 90.4145 25.5378 90.4145 26.3332C90.4145 27.122 90.2687 27.8114 89.977 28.4014C89.6886 28.9914 89.2843 29.4504 88.7639 29.7785C88.2469 30.1067 87.6437 30.2707 86.9543 30.2707ZM86.9543 29.2167C87.4779 29.2167 87.9088 29.0825 88.2469 28.814C88.5849 28.5456 88.8352 28.1926 88.9976 27.7551C89.16 27.3176 89.2412 26.8436 89.2412 26.3332C89.2412 25.8228 89.16 25.3472 88.9976 24.9064C88.8352 24.4656 88.5849 24.1093 88.2469 23.8375C87.9088 23.5657 87.4779 23.4298 86.9543 23.4298C86.4306 23.4298 85.9997 23.5657 85.6616 23.8375C85.3236 24.1093 85.0733 24.4656 84.9109 24.9064C84.7485 25.3472 84.6673 25.8228 84.6673 26.3332C84.6673 26.8436 84.7485 27.3176 84.9109 27.7551C85.0733 28.1926 85.3236 28.5456 85.6616 28.814C85.9997 29.0825 86.4306 29.2167 86.9543 29.2167ZM92.9197 19.9298V23.4298H91.826V19.9298H92.9197ZM100.118 24.1855L99.0641 24.4838C98.9978 24.3081 98.9001 24.1374 98.7708 23.9717C98.6449 23.8027 98.4725 23.6635 98.2538 23.5541C98.035 23.4447 97.7549 23.39 97.4136 23.39C96.9462 23.39 96.5568 23.4978 96.2452 23.7132C95.937 23.9253 95.7829 24.1954 95.7829 24.5236C95.7829 24.8152 95.8889 25.0456 96.1011 25.2146C96.3132 25.3837 96.6446 25.5245 97.0954 25.6372L98.2289 25.9156C98.9117 26.0813 99.4204 26.3349 99.7552 26.6763C100.09 27.0143 100.257 27.4502 100.257 27.9838C100.257 28.4213 100.131 28.8124 99.8795 29.1571C99.6309 29.5018 99.2829 29.7736 98.8354 29.9724C98.388 30.1713 97.8676 30.2707 97.2744 30.2707C96.4955 30.2707 95.8508 30.1017 95.3404 29.7636C94.83 29.4256 94.5068 28.9317 94.371 28.2821L95.4846 28.0037C95.5906 28.4147 95.7912 28.7229 96.0861 28.9284C96.3844 29.1339 96.7739 29.2366 97.2545 29.2366C97.8013 29.2366 98.2355 29.1206 98.557 28.8886C98.8818 28.6533 99.0442 28.3716 99.0442 28.0435C99.0442 27.7783 98.9514 27.5562 98.7658 27.3773C98.5802 27.195 98.2952 27.0591 97.9107 26.9696L96.638 26.6713C95.9387 26.5056 95.4249 26.2487 95.0968 25.9007C94.772 25.5494 94.6096 25.1102 94.6096 24.5832C94.6096 24.1524 94.7306 23.7712 94.9725 23.4398C95.2178 23.1083 95.5509 22.8481 95.9718 22.6592C96.396 22.4703 96.8766 22.3758 97.4136 22.3758C98.1692 22.3758 98.7625 22.5416 99.1934 22.873C99.6276 23.2044 99.9358 23.6419 100.118 24.1855Z" fill="#734A00"/>
</svg>
