<svg width="148" height="29" viewBox="0 0 148 29" fill="none" xmlns="http://www.w3.org/2000/svg">
<rect y="0.611633" width="148" height="48" rx="16" fill="#FFF7E8"/>
<path d="M27 24.6116H21M24 21.6116V27.6116M24 15.6116C31.2 15.6116 33 17.4116 33 24.6116C33 31.8116 31.2 33.6116 24 33.6116C16.8 33.6116 15 31.8116 15 24.6116C15 17.4116 16.8 15.6116 24 15.6116Z" stroke="#FFA500" stroke-width="1.25" stroke-linecap="round" stroke-linejoin="round"/>
<path d="M53.8239 25.0207C53.8239 26.0946 53.63 27.0226 53.2422 27.8048C52.8544 28.587 52.3224 29.1902 51.6463 29.6145C50.9702 30.0387 50.1979 30.2508 49.3295 30.2508C48.4612 30.2508 47.6889 30.0387 47.0128 29.6145C46.3366 29.1902 45.8047 28.587 45.4169 27.8048C45.0291 27.0226 44.8352 26.0946 44.8352 25.0207C44.8352 23.9469 45.0291 23.0188 45.4169 22.2366C45.8047 21.4544 46.3366 20.8512 47.0128 20.427C47.6889 20.0027 48.4612 19.7906 49.3295 19.7906C50.1979 19.7906 50.9702 20.0027 51.6463 20.427C52.3224 20.8512 52.8544 21.4544 53.2422 22.2366C53.63 23.0188 53.8239 23.9469 53.8239 25.0207ZM52.6307 25.0207C52.6307 24.1391 52.4832 23.395 52.1882 22.7885C51.8965 22.1819 51.5005 21.7229 51 21.4113C50.5028 21.0998 49.946 20.944 49.3295 20.944C48.7131 20.944 48.1546 21.0998 47.6541 21.4113C47.157 21.7229 46.7609 22.1819 46.4659 22.7885C46.1742 23.395 46.0284 24.1391 46.0284 25.0207C46.0284 25.9024 46.1742 26.6464 46.4659 27.253C46.7609 27.8595 47.157 28.3185 47.6541 28.6301C48.1546 28.9417 48.7131 29.0974 49.3295 29.0974C49.946 29.0974 50.5028 28.9417 51 28.6301C51.5005 28.3185 51.8965 27.8595 52.1882 27.253C52.4832 26.6464 52.6307 25.9024 52.6307 25.0207ZM55.4379 30.1116V22.4753H56.5714V23.6287H56.651C56.7902 23.2508 57.0421 22.9443 57.4067 22.7089C57.7713 22.4736 58.1822 22.356 58.6396 22.356C58.7258 22.356 58.8335 22.3576 58.9628 22.3609C59.092 22.3642 59.1898 22.3692 59.2561 22.3758V23.569C59.2163 23.5591 59.1252 23.5442 58.9827 23.5243C58.8435 23.5011 58.696 23.4895 58.5402 23.4895C58.169 23.4895 57.8375 23.5674 57.5459 23.7231C57.2575 23.8756 57.0288 24.0877 56.8598 24.3595C56.6941 24.628 56.6112 24.9345 56.6112 25.2792V30.1116H55.4379ZM63.1969 33.1344C62.6301 33.1344 62.1429 33.0614 61.7352 32.9156C61.3276 32.7731 60.9878 32.5842 60.7161 32.3488C60.4476 32.1168 60.2338 31.8683 60.0747 31.6031L61.0094 30.9469C61.1154 31.0861 61.2497 31.2452 61.4121 31.4241C61.5745 31.6064 61.7965 31.7639 62.0783 31.8964C62.3633 32.0323 62.7362 32.1003 63.1969 32.1003C63.8134 32.1003 64.3221 31.9511 64.7232 31.6528C65.1242 31.3545 65.3247 30.8872 65.3247 30.2508V28.6997H65.2253C65.1391 28.8389 65.0165 29.0113 64.8574 29.2167C64.7016 29.4189 64.4762 29.5996 64.1812 29.7587C63.8896 29.9144 63.4952 29.9923 62.998 29.9923C62.3815 29.9923 61.828 29.8465 61.3375 29.5548C60.8503 29.2631 60.4642 28.8389 60.1791 28.2821C59.8974 27.7253 59.7565 27.0491 59.7565 26.2537C59.7565 25.4715 59.8941 24.7904 60.1692 24.2104C60.4443 23.627 60.8271 23.1763 61.3176 22.8581C61.8081 22.5366 62.3749 22.3758 63.0179 22.3758C63.5151 22.3758 63.9095 22.4587 64.2011 22.6244C64.4961 22.7868 64.7215 22.9724 64.8773 23.1812C65.0364 23.3867 65.159 23.5558 65.2452 23.6883H65.3645V22.4753H66.498V30.3304C66.498 30.9866 66.3489 31.5203 66.0506 31.9312C65.7556 32.3455 65.3579 32.6488 64.8574 32.841C64.3602 33.0366 63.8067 33.1344 63.1969 33.1344ZM63.1571 28.9383C63.6277 28.9383 64.0255 28.8306 64.3503 28.6152C64.6751 28.3997 64.922 28.0899 65.0911 27.6855C65.2601 27.2811 65.3446 26.7972 65.3446 26.2338C65.3446 25.6836 65.2617 25.198 65.096 24.7771C64.9303 24.3562 64.685 24.0264 64.3602 23.7878C64.0354 23.5491 63.6344 23.4298 63.1571 23.4298C62.6599 23.4298 62.2456 23.5558 61.9142 23.8077C61.5861 24.0595 61.3392 24.3976 61.1734 24.8219C61.011 25.2461 60.9298 25.7167 60.9298 26.2338C60.9298 26.7641 61.0127 27.2331 61.1784 27.6408C61.3474 28.0451 61.596 28.3633 61.9241 28.5953C62.2556 28.824 62.6666 28.9383 63.1571 28.9383ZM70.5929 30.2906C70.109 30.2906 69.6698 30.1995 69.2754 30.0172C68.881 29.8316 68.5678 29.5648 68.3358 29.2167C68.1038 28.8654 67.9878 28.4412 67.9878 27.944C67.9878 27.5065 68.074 27.1519 68.2463 26.8801C68.4187 26.605 68.649 26.3896 68.9374 26.2338C69.2257 26.078 69.5439 25.962 69.8919 25.8858C70.2432 25.8062 70.5962 25.7433 70.9509 25.6969C71.4149 25.6372 71.7911 25.5925 72.0794 25.5626C72.3711 25.5295 72.5832 25.4748 72.7158 25.3986C72.8517 25.3223 72.9196 25.1898 72.9196 25.0008V24.9611C72.9196 24.4705 72.7854 24.0894 72.5169 23.8176C72.2518 23.5458 71.8491 23.4099 71.3088 23.4099C70.7487 23.4099 70.3095 23.5326 69.9913 23.7778C69.6732 24.0231 69.4494 24.2849 69.3202 24.5633L68.2065 24.1656C68.4054 23.7016 68.6705 23.3403 69.002 23.0818C69.3367 22.82 69.7013 22.6377 70.0957 22.5349C70.4935 22.4289 70.8846 22.3758 71.269 22.3758C71.5143 22.3758 71.796 22.4057 72.1142 22.4653C72.4357 22.5217 72.7456 22.6393 73.0439 22.8183C73.3455 22.9973 73.5957 23.2674 73.7946 23.6287C73.9935 23.9899 74.0929 24.4738 74.0929 25.0804V30.1116H72.9196V29.0775H72.8599C72.7804 29.2433 72.6478 29.4206 72.4622 29.6095C72.2766 29.7984 72.0297 29.9592 71.7214 30.0917C71.4132 30.2243 71.037 30.2906 70.5929 30.2906ZM70.7719 29.2366C71.2359 29.2366 71.627 29.1455 71.9452 28.9632C72.2667 28.7809 72.5086 28.5456 72.671 28.2572C72.8367 27.9689 72.9196 27.6656 72.9196 27.3474V26.2736C72.8699 26.3332 72.7605 26.3879 72.5915 26.4376C72.4258 26.484 72.2335 26.5255 72.0148 26.5619C71.7993 26.5951 71.5889 26.6249 71.3834 26.6514C71.1812 26.6746 71.0171 26.6945 70.8912 26.7111C70.5863 26.7508 70.3012 26.8155 70.0361 26.905C69.7742 26.9911 69.5621 27.122 69.3997 27.2977C69.2406 27.4701 69.1611 27.7054 69.1611 28.0037C69.1611 28.4113 69.3119 28.7196 69.6135 28.9284C69.9184 29.1339 70.3045 29.2366 70.7719 29.2366ZM77.1077 25.5179V30.1116H75.9344V22.4753H77.0679V23.6685H77.1674C77.3463 23.2807 77.6181 22.9691 77.9827 22.7338C78.3473 22.4952 78.8179 22.3758 79.3946 22.3758C79.9117 22.3758 80.3641 22.4819 80.7519 22.694C81.1397 22.9028 81.4413 23.221 81.6567 23.6486C81.8721 24.0728 81.9799 24.6097 81.9799 25.2594V30.1116H80.8066V25.3389C80.8066 24.739 80.6508 24.2717 80.3392 23.9369C80.0277 23.5988 79.6001 23.4298 79.0566 23.4298C78.682 23.4298 78.3473 23.511 78.0523 23.6734C77.7606 23.8358 77.5303 24.0728 77.3613 24.3844C77.1922 24.6959 77.1077 25.0738 77.1077 25.5179ZM83.8239 30.1116V22.4753H84.9972V30.1116H83.8239ZM84.4205 21.2025C84.1918 21.2025 83.9946 21.1247 83.8288 20.9689C83.6664 20.8131 83.5852 20.6258 83.5852 20.4071C83.5852 20.1883 83.6664 20.0011 83.8288 19.8453C83.9946 19.6895 84.1918 19.6116 84.4205 19.6116C84.6491 19.6116 84.8447 19.6895 85.0071 19.8453C85.1728 20.0011 85.2557 20.1883 85.2557 20.4071C85.2557 20.6258 85.1728 20.8131 85.0071 20.9689C84.8447 21.1247 84.6491 21.2025 84.4205 21.2025ZM89.9484 30.2707C89.2325 30.2707 88.616 30.1017 88.099 29.7636C87.5819 29.4256 87.1842 28.9599 86.9058 28.3666C86.6274 27.7733 86.4882 27.0955 86.4882 26.3332C86.4882 25.5577 86.6307 24.8732 86.9157 24.28C87.2041 23.6834 87.6051 23.2177 88.1189 22.8829C88.6359 22.5449 89.2391 22.3758 89.9285 22.3758C90.4654 22.3758 90.9493 22.4753 91.3802 22.6741C91.8111 22.873 92.1641 23.1514 92.4392 23.5094C92.7143 23.8673 92.885 24.2849 92.9512 24.7622H91.7779C91.6885 24.4142 91.4896 24.106 91.1814 23.8375C90.8764 23.5657 90.4654 23.4298 89.9484 23.4298C89.491 23.4298 89.09 23.5491 88.7453 23.7878C88.4039 24.0231 88.1371 24.3562 87.9449 24.7871C87.7559 25.2146 87.6615 25.7167 87.6615 26.2935C87.6615 26.8834 87.7543 27.3971 87.9399 27.8346C88.1288 28.2721 88.394 28.6119 88.7353 28.8538C89.08 29.0958 89.4844 29.2167 89.9484 29.2167C90.2533 29.2167 90.5301 29.1637 90.7787 29.0577C91.0272 28.9516 91.2377 28.7991 91.4101 28.6003C91.5824 28.4014 91.705 28.1628 91.7779 27.8844H92.9512C92.885 28.3351 92.7209 28.7411 92.4591 29.1024C92.2005 29.4604 91.8575 29.7454 91.4299 29.9575C91.0057 30.1663 90.5118 30.2707 89.9484 30.2707ZM98.163 30.1116V19.9298H101.603C102.402 19.9298 103.055 20.074 103.562 20.3623C104.073 20.6474 104.45 21.0335 104.696 21.5207C104.941 22.0079 105.064 22.5515 105.064 23.1514C105.064 23.7513 104.941 24.2965 104.696 24.7871C104.454 25.2776 104.079 25.6687 103.572 25.9604C103.065 26.2487 102.415 26.3929 101.623 26.3929H99.1573V25.2991H101.583C102.13 25.2991 102.57 25.2047 102.901 25.0158C103.232 24.8268 103.473 24.5716 103.622 24.2501C103.774 23.9253 103.851 23.5591 103.851 23.1514C103.851 22.7437 103.774 22.3792 103.622 22.0577C103.473 21.7362 103.231 21.4843 102.896 21.302C102.561 21.1164 102.117 21.0236 101.564 21.0236H99.396V30.1116H98.163ZM107.764 19.9298V30.1116H106.591V19.9298H107.764ZM111.86 30.2906C111.376 30.2906 110.937 30.1995 110.543 30.0172C110.148 29.8316 109.835 29.5648 109.603 29.2167C109.371 28.8654 109.255 28.4412 109.255 27.944C109.255 27.5065 109.341 27.1519 109.513 26.8801C109.686 26.605 109.916 26.3896 110.205 26.2338C110.493 26.078 110.811 25.962 111.159 25.8858C111.51 25.8062 111.863 25.7433 112.218 25.6969C112.682 25.6372 113.058 25.5925 113.347 25.5626C113.638 25.5295 113.85 25.4748 113.983 25.3986C114.119 25.3223 114.187 25.1898 114.187 25.0008V24.9611C114.187 24.4705 114.053 24.0894 113.784 23.8176C113.519 23.5458 113.116 23.4099 112.576 23.4099C112.016 23.4099 111.577 23.5326 111.259 23.7778C110.94 24.0231 110.717 24.2849 110.587 24.5633L109.474 24.1656C109.673 23.7016 109.938 23.3403 110.269 23.0818C110.604 22.82 110.969 22.6377 111.363 22.5349C111.761 22.4289 112.152 22.3758 112.536 22.3758C112.781 22.3758 113.063 22.4057 113.381 22.4653C113.703 22.5217 114.013 22.6393 114.311 22.8183C114.613 22.9973 114.863 23.2674 115.062 23.6287C115.261 23.9899 115.36 24.4738 115.36 25.0804V30.1116H114.187V29.0775H114.127C114.048 29.2433 113.915 29.4206 113.729 29.6095C113.544 29.7984 113.297 29.9592 112.989 30.0917C112.68 30.2243 112.304 30.2906 111.86 30.2906ZM112.039 29.2366C112.503 29.2366 112.894 29.1455 113.212 28.9632C113.534 28.7809 113.776 28.5456 113.938 28.2572C114.104 27.9689 114.187 27.6656 114.187 27.3474V26.2736C114.137 26.3332 114.028 26.3879 113.859 26.4376C113.693 26.484 113.501 26.5255 113.282 26.5619C113.067 26.5951 112.856 26.6249 112.651 26.6514C112.448 26.6746 112.284 26.6945 112.158 26.7111C111.853 26.7508 111.568 26.8155 111.303 26.905C111.041 26.9911 110.829 27.122 110.667 27.2977C110.508 27.4701 110.428 27.7054 110.428 28.0037C110.428 28.4113 110.579 28.7196 110.881 28.9284C111.186 29.1339 111.572 29.2366 112.039 29.2366ZM120.304 30.2707C119.588 30.2707 118.971 30.1017 118.454 29.7636C117.937 29.4256 117.54 28.9599 117.261 28.3666C116.983 27.7733 116.844 27.0955 116.844 26.3332C116.844 25.5577 116.986 24.8732 117.271 24.28C117.56 23.6834 117.961 23.2177 118.474 22.8829C118.991 22.5449 119.595 22.3758 120.284 22.3758C120.821 22.3758 121.305 22.4753 121.736 22.6741C122.167 22.873 122.52 23.1514 122.795 23.5094C123.07 23.8673 123.24 24.2849 123.307 24.7622H122.133C122.044 24.4142 121.845 24.106 121.537 23.8375C121.232 23.5657 120.821 23.4298 120.304 23.4298C119.846 23.4298 119.445 23.5491 119.101 23.7878C118.759 24.0231 118.493 24.3562 118.3 24.7871C118.111 25.2146 118.017 25.7167 118.017 26.2935C118.017 26.8834 118.11 27.3971 118.295 27.8346C118.484 28.2721 118.749 28.6119 119.091 28.8538C119.435 29.0958 119.84 29.2167 120.304 29.2167C120.609 29.2167 120.886 29.1637 121.134 29.0577C121.383 28.9516 121.593 28.7991 121.766 28.6003C121.938 28.4014 122.06 28.1628 122.133 27.8844H123.307C123.24 28.3351 123.076 28.7411 122.815 29.1024C122.556 29.4604 122.213 29.7454 121.785 29.9575C121.361 30.1663 120.867 30.2707 120.304 30.2707ZM127.924 30.2707C127.188 30.2707 126.553 30.1083 126.019 29.7835C125.489 29.4554 125.08 28.998 124.792 28.4113C124.506 27.8214 124.364 27.1353 124.364 26.3531C124.364 25.5709 124.506 24.8815 124.792 24.2849C125.08 23.685 125.481 23.2177 125.995 22.8829C126.512 22.5449 127.115 22.3758 127.804 22.3758C128.202 22.3758 128.595 22.4421 128.983 22.5747C129.37 22.7073 129.723 22.9227 130.042 23.221C130.36 23.516 130.613 23.9071 130.802 24.3943C130.991 24.8815 131.086 25.4814 131.086 26.194V26.6912H125.199V25.677H129.892C129.892 25.2461 129.806 24.8616 129.634 24.5236C129.465 24.1855 129.223 23.9187 128.908 23.7231C128.596 23.5276 128.229 23.4298 127.804 23.4298C127.337 23.4298 126.933 23.5458 126.591 23.7778C126.253 24.0065 125.993 24.3048 125.811 24.6727C125.628 25.0406 125.537 25.435 125.537 25.856V26.5321C125.537 27.1088 125.637 27.5977 125.836 27.9987C126.038 28.3964 126.318 28.6997 126.676 28.9085C127.034 29.114 127.45 29.2167 127.924 29.2167C128.232 29.2167 128.51 29.1737 128.759 29.0875C129.011 28.998 129.228 28.8654 129.41 28.6898C129.592 28.5108 129.733 28.2887 129.833 28.0236L130.966 28.3417C130.847 28.7262 130.646 29.0643 130.365 29.356C130.083 29.6443 129.735 29.8697 129.321 30.0321C128.906 30.1912 128.441 30.2707 127.924 30.2707Z" fill="#734A00"/>
</svg>
