<svg width="102" height="29" viewBox="0 0 102 29" fill="none" xmlns="http://www.w3.org/2000/svg">
<rect y="0.611633" width="102" height="48" rx="16" fill="#FFF7E8"/>
<path d="M27 24.6116H21M24 21.6116V27.6116M24 15.6116C31.2 15.6116 33 17.4116 33 24.6116C33 31.8116 31.2 33.6116 24 33.6116C16.8 33.6116 15 31.8116 15 24.6116C15 17.4116 16.8 15.6116 24 15.6116Z" stroke="#FFA500" stroke-width="1.25" stroke-linecap="round" stroke-linejoin="round"/>
<path d="M44.6761 21.0236V19.9298H52.3125V21.0236H49.1108V30.1116H47.8778V21.0236H44.6761ZM54.9644 30.2906C54.4805 30.2906 54.0413 30.1995 53.6469 30.0172C53.2525 29.8316 52.9393 29.5648 52.7073 29.2167C52.4753 28.8654 52.3593 28.4412 52.3593 27.944C52.3593 27.5065 52.4454 27.1519 52.6178 26.8801C52.7901 26.605 53.0205 26.3896 53.3088 26.2338C53.5972 26.078 53.9154 25.962 54.2634 25.8858C54.6147 25.8062 54.9677 25.7433 55.3223 25.6969C55.7864 25.6372 56.1625 25.5925 56.4509 25.5626C56.7426 25.5295 56.9547 25.4748 57.0873 25.3986C57.2231 25.3223 57.2911 25.1898 57.2911 25.0008V24.9611C57.2911 24.4705 57.1569 24.0894 56.8884 23.8176C56.6232 23.5458 56.2205 23.4099 55.6803 23.4099C55.1202 23.4099 54.681 23.5326 54.3628 23.7778C54.0446 24.0231 53.8209 24.2849 53.6917 24.5633L52.578 24.1656C52.7769 23.7016 53.042 23.3403 53.3735 23.0818C53.7082 22.82 54.0728 22.6377 54.4672 22.5349C54.865 22.4289 55.256 22.3758 55.6405 22.3758C55.8858 22.3758 56.1675 22.4057 56.4857 22.4653C56.8072 22.5217 57.1171 22.6393 57.4154 22.8183C57.717 22.9973 57.9672 23.2674 58.1661 23.6287C58.365 23.9899 58.4644 24.4738 58.4644 25.0804V30.1116H57.2911V29.0775H57.2314C57.1519 29.2433 57.0193 29.4206 56.8337 29.6095C56.6481 29.7984 56.4012 29.9592 56.0929 30.0917C55.7847 30.2243 55.4085 30.2906 54.9644 30.2906ZM55.1434 29.2366C55.6074 29.2366 55.9985 29.1455 56.3167 28.9632C56.6382 28.7809 56.8801 28.5456 57.0425 28.2572C57.2082 27.9689 57.2911 27.6656 57.2911 27.3474V26.2736C57.2414 26.3332 57.132 26.3879 56.963 26.4376C56.7972 26.484 56.605 26.5255 56.3863 26.5619C56.1708 26.5951 55.9604 26.6249 55.7549 26.6514C55.5527 26.6746 55.3886 26.6945 55.2627 26.7111C54.9578 26.7508 54.6727 26.8155 54.4076 26.905C54.1457 26.9911 53.9336 27.122 53.7712 27.2977C53.6121 27.4701 53.5326 27.7054 53.5326 28.0037C53.5326 28.4113 53.6834 28.7196 53.985 28.9284C54.2899 29.1339 54.676 29.2366 55.1434 29.2366ZM60.3059 30.1116V22.4753H61.4394V23.6287H61.519C61.6582 23.2508 61.9101 22.9443 62.2746 22.7089C62.6392 22.4736 63.0502 22.356 63.5076 22.356C63.5938 22.356 63.7015 22.3576 63.8308 22.3609C63.96 22.3642 64.0578 22.3692 64.1241 22.3758V23.569C64.0843 23.5591 63.9932 23.5442 63.8506 23.5243C63.7114 23.5011 63.5639 23.4895 63.4082 23.4895C63.037 23.4895 62.7055 23.5674 62.4138 23.7231C62.1255 23.8756 61.8968 24.0877 61.7278 24.3595C61.562 24.628 61.4792 24.9345 61.4792 25.2792V30.1116H60.3059ZM68.0648 33.1344C67.4981 33.1344 67.0109 33.0614 66.6032 32.9156C66.1955 32.7731 65.8558 32.5842 65.584 32.3488C65.3156 32.1168 65.1018 31.8683 64.9427 31.6031L65.8773 30.9469C65.9834 31.0861 66.1176 31.2452 66.28 31.4241C66.4424 31.6064 66.6645 31.7639 66.9462 31.8964C67.2313 32.0323 67.6041 32.1003 68.0648 32.1003C68.6813 32.1003 69.1901 31.9511 69.5911 31.6528C69.9922 31.3545 70.1927 30.8872 70.1927 30.2508V28.6997H70.0933C70.0071 28.8389 69.8844 29.0113 69.7254 29.2167C69.5696 29.4189 69.3442 29.5996 69.0492 29.7587C68.7576 29.9144 68.3631 29.9923 67.866 29.9923C67.2495 29.9923 66.696 29.8465 66.2055 29.5548C65.7183 29.2631 65.3321 28.8389 65.0471 28.2821C64.7654 27.7253 64.6245 27.0491 64.6245 26.2537C64.6245 25.4715 64.7621 24.7904 65.0371 24.2104C65.3122 23.627 65.6951 23.1763 66.1856 22.8581C66.6761 22.5366 67.2429 22.3758 67.8859 22.3758C68.383 22.3758 68.7774 22.4587 69.0691 22.6244C69.3641 22.7868 69.5895 22.9724 69.7452 23.1812C69.9043 23.3867 70.027 23.5558 70.1131 23.6883H70.2325V22.4753H71.366V30.3304C71.366 30.9866 71.2168 31.5203 70.9185 31.9312C70.6236 32.3455 70.2258 32.6488 69.7254 32.841C69.2282 33.0366 68.6747 33.1344 68.0648 33.1344ZM68.0251 28.9383C68.4957 28.9383 68.8934 28.8306 69.2183 28.6152C69.5431 28.3997 69.79 28.0899 69.959 27.6855C70.1281 27.2811 70.2126 26.7972 70.2126 26.2338C70.2126 25.6836 70.1297 25.198 69.964 24.7771C69.7983 24.3562 69.553 24.0264 69.2282 23.7878C68.9034 23.5491 68.5023 23.4298 68.0251 23.4298C67.5279 23.4298 67.1136 23.5558 66.7822 23.8077C66.454 24.0595 66.2071 24.3976 66.0414 24.8219C65.879 25.2461 65.7978 25.7167 65.7978 26.2338C65.7978 26.7641 65.8807 27.2331 66.0464 27.6408C66.2154 28.0451 66.464 28.3633 66.7921 28.5953C67.1236 28.824 67.5345 28.9383 68.0251 28.9383ZM76.4154 30.2707C75.6796 30.2707 75.0449 30.1083 74.5113 29.7835C73.981 29.4554 73.5717 28.998 73.2833 28.4113C72.9983 27.8214 72.8558 27.1353 72.8558 26.3531C72.8558 25.5709 72.9983 24.8815 73.2833 24.2849C73.5717 23.685 73.9727 23.2177 74.4864 22.8829C75.0035 22.5449 75.6067 22.3758 76.2961 22.3758C76.6938 22.3758 77.0866 22.4421 77.4744 22.5747C77.8621 22.7073 78.2151 22.9227 78.5333 23.221C78.8515 23.516 79.105 23.9071 79.294 24.3943C79.4829 24.8815 79.5773 25.4814 79.5773 26.194V26.6912H73.691V25.677H78.3842C78.3842 25.2461 78.298 24.8616 78.1256 24.5236C77.9566 24.1855 77.7147 23.9187 77.3998 23.7231C77.0882 23.5276 76.7203 23.4298 76.2961 23.4298C75.8288 23.4298 75.4244 23.5458 75.083 23.7778C74.745 24.0065 74.4848 24.3048 74.3025 24.6727C74.1202 25.0406 74.029 25.435 74.029 25.856V26.5321C74.029 27.1088 74.1285 27.5977 74.3273 27.9987C74.5295 28.3964 74.8096 28.6997 75.1675 28.9085C75.5255 29.114 75.9415 29.2167 76.4154 29.2167C76.7237 29.2167 77.0021 29.1737 77.2506 29.0875C77.5025 28.998 77.7196 28.8654 77.9019 28.6898C78.0842 28.5108 78.2251 28.2887 78.3245 28.0236L79.458 28.3417C79.3387 28.7262 79.1382 29.0643 78.8565 29.356C78.5747 29.6443 78.2267 29.8697 77.8124 30.0321C77.3981 30.1912 76.9325 30.2707 76.4154 30.2707ZM84.3832 22.4753V23.4696H80.4258V22.4753H84.3832ZM81.5792 20.6457H82.7525V27.9241C82.7525 28.2556 82.8005 28.5042 82.8967 28.6699C82.9961 28.8323 83.122 28.9417 83.2745 28.998C83.4303 29.051 83.5943 29.0775 83.7667 29.0775C83.896 29.0775 84.002 29.0709 84.0849 29.0577C84.1677 29.0411 84.234 29.0278 84.2837 29.0179L84.5224 30.0719C84.4428 30.1017 84.3318 30.1315 84.1893 30.1613C84.0468 30.1945 83.8661 30.2111 83.6474 30.2111C83.3159 30.2111 82.9911 30.1398 82.6729 29.9973C82.3581 29.8548 82.0962 29.6377 81.8874 29.346C81.6819 29.0543 81.5792 28.6864 81.5792 28.2423V20.6457Z" fill="#734A00"/>
</svg>
