<svg width="174" height="49" viewBox="0 0 174 49" fill="none" xmlns="http://www.w3.org/2000/svg">
<rect y="0.611633" width="174" height="48" rx="16" fill="#FFF7E8"/>
<path d="M27 24.6116H21M24 21.6116V27.6116M24 15.6116C31.2 15.6116 33 17.4116 33 24.6116C33 31.8116 31.2 33.6116 24 33.6116C16.8 33.6116 15 31.8116 15 24.6116C15 17.4116 16.8 15.6116 24 15.6116Z" stroke="#FFA500" stroke-width="1.25" stroke-linecap="round" stroke-linejoin="round"/>
<path d="M45.233 30.1116V19.9298H46.4659V29.0179H51.1989V30.1116H45.233ZM52.6489 30.1116V22.4753H53.8222V30.1116H52.6489ZM53.2455 21.2025C53.0168 21.2025 52.8196 21.1247 52.6538 20.9689C52.4914 20.8131 52.4102 20.6258 52.4102 20.4071C52.4102 20.1883 52.4914 20.0011 52.6538 19.8453C52.8196 19.6895 53.0168 19.6116 53.2455 19.6116C53.4741 19.6116 53.6697 19.6895 53.8321 19.8453C53.9978 20.0011 54.0807 20.1883 54.0807 20.4071C54.0807 20.6258 53.9978 20.8131 53.8321 20.9689C53.6697 21.1247 53.4741 21.2025 53.2455 21.2025ZM58.9922 22.4753V23.4696H55.0348V22.4753H58.9922ZM56.1882 20.6457H57.3615V27.9241C57.3615 28.2556 57.4095 28.5042 57.5056 28.6699C57.6051 28.8323 57.731 28.9417 57.8835 28.998C58.0393 29.051 58.2033 29.0775 58.3757 29.0775C58.5049 29.0775 58.611 29.0709 58.6939 29.0577C58.7767 29.0411 58.843 29.0278 58.8927 29.0179L59.1314 30.0719C59.0518 30.1017 58.9408 30.1315 58.7983 30.1613C58.6557 30.1945 58.4751 30.2111 58.2564 30.2111C57.9249 30.2111 57.6001 30.1398 57.2819 29.9973C56.9671 29.8548 56.7052 29.6377 56.4964 29.346C56.2909 29.0543 56.1882 28.6864 56.1882 28.2423V20.6457ZM63.7781 22.4753V23.4696H59.8207V22.4753H63.7781ZM60.9741 20.6457H62.1474V27.9241C62.1474 28.2556 62.1955 28.5042 62.2916 28.6699C62.391 28.8323 62.517 28.9417 62.6694 28.998C62.8252 29.051 62.9893 29.0775 63.1616 29.0775C63.2909 29.0775 63.3969 29.0709 63.4798 29.0577C63.5627 29.0411 63.6289 29.0278 63.6787 29.0179L63.9173 30.0719C63.8377 30.1017 63.7267 30.1315 63.5842 30.1613C63.4417 30.1945 63.261 30.2111 63.0423 30.2111C62.7109 30.2111 62.386 30.1398 62.0679 29.9973C61.753 29.8548 61.4912 29.6377 61.2824 29.346C61.0769 29.0543 60.9741 28.6864 60.9741 28.2423V20.6457ZM66.5804 19.9298V30.1116H65.4071V19.9298H66.5804ZM71.631 30.2707C70.8952 30.2707 70.2605 30.1083 69.7269 29.7835C69.1966 29.4554 68.7873 28.998 68.4989 28.4113C68.2139 27.8214 68.0714 27.1353 68.0714 26.3531C68.0714 25.5709 68.2139 24.8815 68.4989 24.2849C68.7873 23.685 69.1883 23.2177 69.7021 22.8829C70.2191 22.5449 70.8223 22.3758 71.5117 22.3758C71.9094 22.3758 72.3022 22.4421 72.69 22.5747C73.0778 22.7073 73.4308 22.9227 73.7489 23.221C74.0671 23.516 74.3207 23.9071 74.5096 24.3943C74.6985 24.8815 74.793 25.4814 74.793 26.194V26.6912H68.9066V25.677H73.5998C73.5998 25.2461 73.5136 24.8616 73.3413 24.5236C73.1722 24.1855 72.9303 23.9187 72.6154 23.7231C72.3039 23.5276 71.936 23.4298 71.5117 23.4298C71.0444 23.4298 70.64 23.5458 70.2987 23.7778C69.9606 24.0065 69.7004 24.3048 69.5181 24.6727C69.3358 25.0406 69.2447 25.435 69.2447 25.856V26.5321C69.2447 27.1088 69.3441 27.5977 69.543 27.9987C69.7451 28.3964 70.0252 28.6997 70.3832 28.9085C70.7411 29.114 71.1571 29.2167 71.631 29.2167C71.9393 29.2167 72.2177 29.1737 72.4663 29.0875C72.7182 28.998 72.9353 28.8654 73.1175 28.6898C73.2998 28.5108 73.4407 28.2887 73.5401 28.0236L74.6737 28.3417C74.5543 28.7262 74.3538 29.0643 74.0721 29.356C73.7904 29.6443 73.4424 29.8697 73.0281 30.0321C72.6138 30.1912 72.1481 30.2707 71.631 30.2707ZM80.0744 30.1116V19.9298H83.634C84.3433 19.9298 84.9283 20.0524 85.389 20.2977C85.8497 20.5397 86.1927 20.8661 86.4181 21.2771C86.6435 21.6848 86.7562 22.1372 86.7562 22.6344C86.7562 23.0719 86.6783 23.4331 86.5225 23.7182C86.3701 24.0032 86.1679 24.2286 85.916 24.3943C85.6674 24.56 85.3973 24.6827 85.1056 24.7622V24.8616C85.4172 24.8815 85.7304 24.9909 86.0452 25.1898C86.3601 25.3886 86.6236 25.6737 86.8357 26.0449C87.0478 26.4161 87.1539 26.8702 87.1539 27.4071C87.1539 27.9175 87.0379 28.3765 86.8059 28.7842C86.5739 29.1919 86.2076 29.515 85.7072 29.7537C85.2067 29.9923 84.5554 30.1116 83.7533 30.1116H80.0744ZM81.3073 29.0179H83.7533C84.5587 29.0179 85.1305 28.8621 85.4685 28.5506C85.8099 28.2357 85.9806 27.8545 85.9806 27.4071C85.9806 27.0624 85.8928 26.7442 85.7171 26.4525C85.5415 26.1576 85.2912 25.9222 84.9664 25.7466C84.6416 25.5676 84.2571 25.4781 83.813 25.4781H81.3073V29.0179ZM81.3073 24.4042H83.5942C83.9655 24.4042 84.3002 24.3313 84.5985 24.1855C84.9001 24.0397 85.1388 23.8342 85.3144 23.569C85.4934 23.3039 85.5829 22.9923 85.5829 22.6344C85.5829 22.1869 85.4271 21.8074 85.1156 21.4959C84.804 21.181 84.3102 21.0236 83.634 21.0236H81.3073V24.4042ZM88.7207 30.1116V22.4753H89.8543V23.6287H89.9338C90.073 23.2508 90.3249 22.9443 90.6895 22.7089C91.0541 22.4736 91.4651 22.356 91.9224 22.356C92.0086 22.356 92.1163 22.3576 92.2456 22.3609C92.3749 22.3642 92.4726 22.3692 92.5389 22.3758V23.569C92.4991 23.5591 92.408 23.5442 92.2655 23.5243C92.1263 23.5011 91.9788 23.4895 91.823 23.4895C91.4518 23.4895 91.1204 23.5674 90.8287 23.7231C90.5403 23.8756 90.3116 24.0877 90.1426 24.3595C89.9769 24.628 89.894 24.9345 89.894 25.2792V30.1116H88.7207ZM95.8769 30.2906C95.393 30.2906 94.9538 30.1995 94.5594 30.0172C94.165 29.8316 93.8518 29.5648 93.6198 29.2167C93.3878 28.8654 93.2718 28.4412 93.2718 27.944C93.2718 27.5065 93.3579 27.1519 93.5303 26.8801C93.7026 26.605 93.933 26.3896 94.2213 26.2338C94.5097 26.078 94.8279 25.962 95.1759 25.8858C95.5272 25.8062 95.8802 25.7433 96.2348 25.6969C96.6989 25.6372 97.075 25.5925 97.3634 25.5626C97.6551 25.5295 97.8672 25.4748 97.9998 25.3986C98.1356 25.3223 98.2036 25.1898 98.2036 25.0008V24.9611C98.2036 24.4705 98.0694 24.0894 97.8009 23.8176C97.5357 23.5458 97.133 23.4099 96.5928 23.4099C96.0327 23.4099 95.5935 23.5326 95.2753 23.7778C94.9571 24.0231 94.7334 24.2849 94.6042 24.5633L93.4905 24.1656C93.6894 23.7016 93.9545 23.3403 94.286 23.0818C94.6207 22.82 94.9853 22.6377 95.3797 22.5349C95.7774 22.4289 96.1685 22.3758 96.553 22.3758C96.7983 22.3758 97.08 22.4057 97.3982 22.4653C97.7197 22.5217 98.0296 22.6393 98.3279 22.8183C98.6295 22.9973 98.8797 23.2674 99.0786 23.6287C99.2774 23.9899 99.3769 24.4738 99.3769 25.0804V30.1116H98.2036V29.0775H98.1439C98.0644 29.2433 97.9318 29.4206 97.7462 29.6095C97.5606 29.7984 97.3137 29.9592 97.0054 30.0917C96.6972 30.2243 96.321 30.2906 95.8769 30.2906ZM96.0559 29.2366C96.5199 29.2366 96.911 29.1455 97.2292 28.9632C97.5507 28.7809 97.7926 28.5456 97.955 28.2572C98.1207 27.9689 98.2036 27.6656 98.2036 27.3474V26.2736C98.1539 26.3332 98.0445 26.3879 97.8755 26.4376C97.7097 26.484 97.5175 26.5255 97.2988 26.5619C97.0833 26.5951 96.8729 26.6249 96.6674 26.6514C96.4652 26.6746 96.3011 26.6945 96.1752 26.7111C95.8703 26.7508 95.5852 26.8155 95.3201 26.905C95.0582 26.9911 94.8461 27.122 94.6837 27.2977C94.5246 27.4701 94.4451 27.7054 94.4451 28.0037C94.4451 28.4113 94.5959 28.7196 94.8975 28.9284C95.2024 29.1339 95.5885 29.2366 96.0559 29.2366ZM101 30.1116V29.2167L105.335 23.6486V23.569H101.139V22.4753H106.846V23.4099L102.63 28.9383V29.0179H106.985V30.1116H101ZM108.493 30.1116V22.4753H109.666V30.1116H108.493ZM109.089 21.2025C108.861 21.2025 108.663 21.1247 108.498 20.9689C108.335 20.8131 108.254 20.6258 108.254 20.4071C108.254 20.1883 108.335 20.0011 108.498 19.8453C108.663 19.6895 108.861 19.6116 109.089 19.6116C109.318 19.6116 109.513 19.6895 109.676 19.8453C109.842 20.0011 109.924 20.1883 109.924 20.4071C109.924 20.6258 109.842 20.8131 109.676 20.9689C109.513 21.1247 109.318 21.2025 109.089 21.2025ZM112.688 19.9298V30.1116H111.515V19.9298H112.688ZM118.751 19.9298L121.774 28.5008H121.893L124.916 19.9298H126.209L122.47 30.1116H121.197L117.459 19.9298H118.751ZM129.826 30.2707C129.091 30.2707 128.456 30.1083 127.922 29.7835C127.392 29.4554 126.983 28.998 126.694 28.4113C126.409 27.8214 126.267 27.1353 126.267 26.3531C126.267 25.5709 126.409 24.8815 126.694 24.2849C126.983 23.685 127.384 23.2177 127.897 22.8829C128.414 22.5449 129.018 22.3758 129.707 22.3758C130.105 22.3758 130.498 22.4421 130.885 22.5747C131.273 22.7073 131.626 22.9227 131.944 23.221C132.262 23.516 132.516 23.9071 132.705 24.3943C132.894 24.8815 132.988 25.4814 132.988 26.194V26.6912H127.102V25.677H131.795C131.795 25.2461 131.709 24.8616 131.537 24.5236C131.368 24.1855 131.126 23.9187 130.811 23.7231C130.499 23.5276 130.131 23.4298 129.707 23.4298C129.24 23.4298 128.835 23.5458 128.494 23.7778C128.156 24.0065 127.896 24.3048 127.713 24.6727C127.531 25.0406 127.44 25.435 127.44 25.856V26.5321C127.44 27.1088 127.539 27.5977 127.738 27.9987C127.94 28.3964 128.221 28.6997 128.578 28.9085C128.936 29.114 129.352 29.2167 129.826 29.2167C130.135 29.2167 130.413 29.1737 130.662 29.0875C130.913 28.998 131.131 28.8654 131.313 28.6898C131.495 28.5108 131.636 28.2887 131.735 28.0236L132.869 28.3417C132.75 28.7262 132.549 29.0643 132.267 29.356C131.986 29.6443 131.638 29.8697 131.223 30.0321C130.809 30.1912 130.343 30.2707 129.826 30.2707ZM137.555 33.1344C136.989 33.1344 136.501 33.0614 136.094 32.9156C135.686 32.7731 135.346 32.5842 135.075 32.3488C134.806 32.1168 134.592 31.8683 134.433 31.6031L135.368 30.9469C135.474 31.0861 135.608 31.2452 135.771 31.4241C135.933 31.6064 136.155 31.7639 136.437 31.8964C136.722 32.0323 137.095 32.1003 137.555 32.1003C138.172 32.1003 138.681 31.9511 139.082 31.6528C139.483 31.3545 139.683 30.8872 139.683 30.2508V28.6997H139.584C139.498 28.8389 139.375 29.0113 139.216 29.2167C139.06 29.4189 138.835 29.5996 138.54 29.7587C138.248 29.9144 137.854 29.9923 137.357 29.9923C136.74 29.9923 136.187 29.8465 135.696 29.5548C135.209 29.2631 134.823 28.8389 134.538 28.2821C134.256 27.7253 134.115 27.0491 134.115 26.2537C134.115 25.4715 134.253 24.7904 134.528 24.2104C134.803 23.627 135.186 23.1763 135.676 22.8581C136.167 22.5366 136.733 22.3758 137.376 22.3758C137.874 22.3758 138.268 22.4587 138.56 22.6244C138.855 22.7868 139.08 22.9724 139.236 23.1812C139.395 23.3867 139.518 23.5558 139.604 23.6883H139.723V22.4753H140.857V30.3304C140.857 30.9866 140.707 31.5203 140.409 31.9312C140.114 32.3455 139.716 32.6488 139.216 32.841C138.719 33.0366 138.165 33.1344 137.555 33.1344ZM137.516 28.9383C137.986 28.9383 138.384 28.8306 138.709 28.6152C139.034 28.3997 139.281 28.0899 139.45 27.6855C139.619 27.2811 139.703 26.7972 139.703 26.2338C139.703 25.6836 139.62 25.198 139.455 24.7771C139.289 24.3562 139.044 24.0264 138.719 23.7878C138.394 23.5491 137.993 23.4298 137.516 23.4298C137.019 23.4298 136.604 23.5558 136.273 23.8077C135.945 24.0595 135.698 24.3976 135.532 24.8219C135.37 25.2461 135.288 25.7167 135.288 26.2338C135.288 26.7641 135.371 27.2331 135.537 27.6408C135.706 28.0451 135.955 28.3633 136.283 28.5953C136.614 28.824 137.025 28.9383 137.516 28.9383ZM144.951 30.2906C144.468 30.2906 144.028 30.1995 143.634 30.0172C143.24 29.8316 142.926 29.5648 142.694 29.2167C142.462 28.8654 142.346 28.4412 142.346 27.944C142.346 27.5065 142.433 27.1519 142.605 26.8801C142.777 26.605 143.008 26.3896 143.296 26.2338C143.584 26.078 143.902 25.962 144.25 25.8858C144.602 25.8062 144.955 25.7433 145.309 25.6969C145.773 25.6372 146.15 25.5925 146.438 25.5626C146.73 25.5295 146.942 25.4748 147.074 25.3986C147.21 25.3223 147.278 25.1898 147.278 25.0008V24.9611C147.278 24.4705 147.144 24.0894 146.875 23.8176C146.61 23.5458 146.208 23.4099 145.667 23.4099C145.107 23.4099 144.668 23.5326 144.35 23.7778C144.032 24.0231 143.808 24.2849 143.679 24.5633L142.565 24.1656C142.764 23.7016 143.029 23.3403 143.361 23.0818C143.695 22.82 144.06 22.6377 144.454 22.5349C144.852 22.4289 145.243 22.3758 145.628 22.3758C145.873 22.3758 146.155 22.4057 146.473 22.4653C146.794 22.5217 147.104 22.6393 147.402 22.8183C147.704 22.9973 147.954 23.2674 148.153 23.6287C148.352 23.9899 148.451 24.4738 148.451 25.0804V30.1116H147.278V29.0775H147.219C147.139 29.2433 147.006 29.4206 146.821 29.6095C146.635 29.7984 146.388 29.9592 146.08 30.0917C145.772 30.2243 145.396 30.2906 144.951 30.2906ZM145.13 29.2366C145.594 29.2366 145.986 29.1455 146.304 28.9632C146.625 28.7809 146.867 28.5456 147.03 28.2572C147.195 27.9689 147.278 27.6656 147.278 27.3474V26.2736C147.228 26.3332 147.119 26.3879 146.95 26.4376C146.784 26.484 146.592 26.5255 146.373 26.5619C146.158 26.5951 145.947 26.6249 145.742 26.6514C145.54 26.6746 145.376 26.6945 145.25 26.7111C144.945 26.7508 144.66 26.8155 144.395 26.905C144.133 26.9911 143.921 27.122 143.758 27.2977C143.599 27.4701 143.52 27.7054 143.52 28.0037C143.52 28.4113 143.67 28.7196 143.972 28.9284C144.277 29.1339 144.663 29.2366 145.13 29.2366ZM151.466 25.5179V30.1116H150.293V22.4753H151.427V23.6685H151.526C151.705 23.2807 151.977 22.9691 152.341 22.7338C152.706 22.4952 153.177 22.3758 153.753 22.3758C154.27 22.3758 154.723 22.4819 155.11 22.694C155.498 22.9028 155.8 23.221 156.015 23.6486C156.231 24.0728 156.338 24.6097 156.338 25.2594V30.1116H155.165V25.3389C155.165 24.739 155.009 24.2717 154.698 23.9369C154.386 23.5988 153.959 23.4298 153.415 23.4298C153.041 23.4298 152.706 23.511 152.411 23.6734C152.119 23.8358 151.889 24.0728 151.72 24.3844C151.551 24.6959 151.466 25.0738 151.466 25.5179Z" fill="#734A00"/>
</svg>
